source.SemiBold Italic
<glyph name="slash" format="2">
	<unicode hex="002F"/>
	<advance width="421"/>
	<outline>
		<contour>
			<point x="-44" y="0" type="line"/>
			<point x="100" y="0" type="line"/>
			<point x="495" y="714" type="line"/>
			<point x="351" y="714" type="line"/>
		</contour>
	</outline>
</glyph>
<glyph name="less" format="2">
	<unicode hex="003C"/>
	<advance width="572"/>
	<outline>
		<contour>
			<point x="538" y="99" type="line"/>
			<point x="538" y="216" type="line"/>
			<point x="204" y="353" type="line"/>
			<point x="538" y="508" type="line"/>
			<point x="538" y="625" type="line"/>
			<point x="53" y="383" type="line"/>
			<point x="53" y="313" type="line"/>
		</contour>
	</outline>
</glyph>
<glyph name="greater" format="2">
	<unicode hex="003E"/>
	<advance width="572"/>
	<outline>
		<contour>
			<point x="53" y="216" type="line"/>
			<point x="53" y="99" type="line"/>
			<point x="538" y="313" type="line"/>
			<point x="538" y="383" type="line"/>
			<point x="53" y="625" type="line"/>
			<point x="53" y="508" type="line"/>
			<point x="387" y="353" type="line"/>
		</contour>
	</outline>
</glyph>
<glyph name="E" format="2">
	<unicode hex="0045"/>
	<advance width="542"/>
	<outline>
		<contour>
			<point x="26" y="0" type="line"/>
			<point x="425" y="0" type="line"/>
			<point x="451" y="125" type="line"/>
			<point x="201" y="125" type="line"/>
			<point x="240" y="309" type="line"/>
			<point x="473" y="309" type="line"/>
			<point x="500" y="433" type="line"/>
			<point x="267" y="433" type="line"/>
			<point x="300" y="590" type="line"/>
			<point x="550" y="590" type="line"/>
			<point x="576" y="714" type="line"/>
			<point x="177" y="714" type="line"/>
		</contour>
	</outline>
	<anchor name="bottom" x="246" y="0"/>
	<anchor name="top" x="368" y="714"/>
	<anchor name="topright" x="616" y="714"/>
</glyph>
<glyph name="F" format="2">
	<unicode hex="0046"/>
	<advance width="531"/>
	<outline>
		<contour>
			<point x="26" y="0" type="line"/>
			<point x="175" y="0" type="line"/>
			<point x="234" y="282" type="line"/>
			<point x="465" y="282" type="line"/>
			<point x="492" y="406" type="line"/>
			<point x="261" y="406" type="line"/>
			<point x="300" y="590" type="line"/>
			<point x="548" y="590" type="line"/>
			<point x="574" y="714" type="line"/>
			<point x="177" y="714" type="line"/>
		</contour>
	</outline>
	<anchor name="bottom" x="208" y="0"/>
	<anchor name="top" x="360" y="714"/>
	<anchor name="topright" x="605" y="714"/>
</glyph>
<glyph name="H" format="2">
	<unicode hex="0048"/>
	<advance width="700"/>
	<outline>
		<contour>
			<point x="26" y="0" type="line"/>
			<point x="175" y="0" type="line"/>
			<point x="240" y="308" type="line"/>
			<point x="470" y="308" type="line"/>
			<point x="405" y="0" type="line"/>
			<point x="554" y="0" type="line"/>
			<point x="705" y="714" type="line"/>
			<point x="556" y="714" type="line"/>
			<point x="497" y="434" type="line"/>
			<point x="267" y="434" type="line"/>
			<point x="326" y="714" type="line"/>
			<point x="177" y="714" type="line"/>
		</contour>
	</outline>
	<anchor name="bottom" x="297" y="0"/>
	<anchor name="center" x="390" y="357"/>
	<anchor name="top" x="440" y="714"/>
	<anchor name="topright" x="774" y="714"/>
</glyph>
<glyph name="L" format="2">
	<unicode hex="004C"/>
	<advance width="518"/>
	<outline>
		<contour>
			<point x="26" y="0" type="line"/>
			<point x="425" y="0" type="line"/>
			<point x="451" y="125" type="line"/>
			<point x="201" y="125" type="line"/>
			<point x="326" y="714" type="line"/>
			<point x="177" y="714" type="line"/>
		</contour>
	</outline>
	<anchor name="bottom" x="227" y="0"/>
	<anchor name="center" x="299" y="357"/>
	<anchor name="top" x="281" y="714"/>
	<anchor name="topright" x="496" y="714"/>
</glyph>
<glyph name="O" format="2">
	<unicode hex="004F"/>
	<advance width="730"/>
	<outline>
		<contour>
			<point x="325" y="-10" type="curve" smooth="yes"/>
			<point x="586" y="-10"/>
			<point x="699" y="225"/>
			<point x="699" y="458" type="curve" smooth="yes"/>
			<point x="699" y="619"/>
			<point x="611" y="725"/>
			<point x="438" y="725" type="curve" smooth="yes"/>
			<point x="178" y="725"/>
			<point x="60" y="485"/>
			<point x="60" y="262" type="curve" smooth="yes"/>
			<point x="60" y="98"/>
			<point x="152" y="-10"/>
		</contour>
		<contour>
			<point x="336" y="117" type="curve" smooth="yes"/>
			<point x="258" y="117"/>
			<point x="212" y="167"/>
			<point x="212" y="262" type="curve" smooth="yes"/>
			<point x="212" y="445"/>
			<point x="302" y="599"/>
			<point x="426" y="599" type="curve" smooth="yes"/>
			<point x="506" y="599"/>
			<point x="547" y="542"/>
			<point x="547" y="454" type="curve" smooth="yes"/>
			<point x="547" y="249"/>
			<point x="452" y="117"/>
		</contour>
	</outline>
	<anchor name="bottom" x="322" y="0"/>
	<anchor name="center" x="405" y="357"/>
	<anchor name="top" x="459" y="714"/>
	<anchor name="topright" x="804" y="714"/>
</glyph>
<glyph name="R" format="2">
	<unicode hex="0052"/>
	<advance width="609"/>
	<outline>
		<contour>
			<point x="26" y="0" type="line"/>
			<point x="175" y="0" type="line"/>
			<point x="233" y="274" type="line"/>
			<point x="291" y="274" type="line"/>
			<point x="392" y="0" type="line"/>
			<point x="554" y="0" type="line"/>
			<point x="427" y="303" type="line"/>
			<point x="517" y="334"/>
			<point x="584" y="405"/>
			<point x="584" y="518" type="curve" smooth="yes"/>
			<point x="584" y="656"/>
			<point x="495" y="714"/>
			<point x="352" y="714" type="curve" smooth="yes"/>
			<point x="177" y="714" type="line"/>
		</contour>
		<contour>
			<point x="297" y="397" type="curve" smooth="yes"/>
			<point x="259" y="397" type="line"/>
			<point x="300" y="590" type="line"/>
			<point x="336" y="590" type="line" smooth="yes"/>
			<point x="402" y="590"/>
			<point x="432" y="563"/>
			<point x="432" y="510" type="curve" smooth="yes"/>
			<point x="432" y="434"/>
			<point x="382" y="397"/>
		</contour>
	</outline>
	<anchor name="bottom" x="260" y="0"/>
	<anchor name="top" x="399" y="714"/>
	<anchor name="topright" x="683" y="714"/>
</glyph>
<glyph name="T" format="2">
	<unicode hex="0054"/>
	<advance width="531"/>
	<outline>
		<contour>
			<point x="130" y="0" type="line"/>
			<point x="279" y="0" type="line"/>
			<point x="403" y="588" type="line"/>
			<point x="575" y="588" type="line"/>
			<point x="602" y="714" type="line"/>
			<point x="109" y="714" type="line"/>
			<point x="82" y="588" type="line"/>
			<point x="254" y="588" type="line"/>
		</contour>
	</outline>
	<anchor name="bottom" x="208" y="0"/>
	<anchor name="center" x="306" y="357"/>
	<anchor name="top" x="360" y="714"/>
	<anchor name="topright" x="605" y="714"/>
</glyph>
<glyph name="Y" format="2">
	<unicode hex="0059"/>
	<advance width="564"/>
	<outline>
		<contour>
			<point x="148" y="0" type="line"/>
			<point x="296" y="0" type="line"/>
			<point x="354" y="273" type="line"/>
			<point x="656" y="714" type="line"/>
			<point x="489" y="714" type="line"/>
			<point x="306" y="425" type="line"/>
			<point x="243" y="714" type="line"/>
			<point x="91" y="714" type="line"/>
			<point x="206" y="273" type="line"/>
		</contour>
	</outline>
	<anchor name="bottom" x="224" y="0"/>
	<anchor name="top" x="366" y="714"/>
	<anchor name="topright" x="638" y="714"/>
</glyph>
<glyph name="bracketleft" format="2">
	<unicode hex="005B"/>
	<advance width="331"/>
	<outline>
		<contour>
			<point x="-18" y="-158" type="line"/>
			<point x="213" y="-158" type="line"/>
			<point x="235" y="-55" type="line"/>
			<point x="130" y="-55" type="line"/>
			<point x="272" y="611" type="line"/>
			<point x="377" y="611" type="line"/>
			<point x="399" y="714" type="line"/>
			<point x="168" y="714" type="line"/>
		</contour>
	</outline>
</glyph>
<glyph name="underscore" format="2">
	<unicode hex="005F"/>
	<advance width="400"/>
	<outline>
		<contour>
			<point x="-91" y="-158" type="line"/>
			<point x="310" y="-158" type="line"/>
			<point x="325" y="-90" type="line"/>
			<point x="-76" y="-90" type="line"/>
		</contour>
	</outline>
</glyph>
<glyph name="l" format="2">
	<unicode hex="006C"/>
	<advance width="297"/>
	<outline>
		<contour>
			<point x="18" y="0" type="line"/>
			<point x="165" y="0" type="line"/>
			<point x="326" y="760" type="line"/>
			<point x="179" y="760" type="line"/>
		</contour>
	</outline>
	<anchor name="bottom" x="91" y="0"/>
	<anchor name="center" x="207" y="273"/>
	<anchor name="top" x="254" y="760"/>
	<anchor name="topright" x="343" y="760"/>
</glyph>
<glyph name="v" format="2">
	<unicode hex="0076"/>
	<advance width="512"/>
	<outline>
		<contour>
			<point x="117" y="0" type="line"/>
			<point x="275" y="0" type="line"/>
			<point x="570" y="546" type="line"/>
			<point x="412" y="546" type="line"/>
			<point x="267" y="256" type="line" smooth="yes"/>
			<point x="254" y="231"/>
			<point x="236" y="180"/>
			<point x="224" y="147" type="curve"/>
			<point x="219" y="147" type="line"/>
			<point x="219" y="183"/>
			<point x="218" y="235"/>
			<point x="216" y="260" type="curve" smooth="yes"/>
			<point x="194" y="546" type="line"/>
			<point x="50" y="546" type="line"/>
		</contour>
	</outline>
	<anchor name="bottom" x="197" y="0"/>
	<anchor name="top" x="299" y="546"/>
	<anchor name="topright" x="550" y="546"/>
</glyph>
<glyph name="x" format="2">
	<unicode hex="0078"/>
	<advance width="531"/>
	<outline>
		<contour>
			<point x="-49" y="0" type="line"/>
			<point x="122" y="0" type="line"/>
			<point x="251" y="167" type="line"/>
			<point x="312" y="0" type="line"/>
			<point x="471" y="0" type="line"/>
			<point x="352" y="272" type="line"/>
			<point x="580" y="546" type="line"/>
			<point x="407" y="546" type="line"/>
			<point x="288" y="383" type="line"/>
			<point x="232" y="546" type="line"/>
			<point x="75" y="546" type="line"/>
			<point x="185" y="280" type="line"/>
		</contour>
	</outline>
	<anchor name="bottom" x="208" y="0"/>
	<anchor name="top" x="317" y="546"/>
	<anchor name="topright" x="569" y="546"/>
</glyph>
<glyph name="logicalnot" format="2">
	<unicode hex="00AC"/>
	<advance width="572"/>
	<outline>
		<contour>
			<point x="538" y="406" type="line"/>
			<point x="53" y="406" type="line"/>
			<point x="53" y="299" type="line"/>
			<point x="431" y="299" type="line"/>
			<point x="431" y="121" type="line"/>
			<point x="538" y="121" type="line"/>
		</contour>
	</outline>
</glyph>
<glyph name="Eth" format="2">
	<unicode hex="00D0"/>
	<advance width="677"/>
	<outline>
		<contour>
			<point x="379" y="415" type="line"/>
			<point x="45" y="415" type="line"/>
			<point x="18" y="291" type="line"/>
			<point x="353" y="291" type="line"/>
		</contour>
		<component base="D"/>
	</outline>
	<anchor name="bottom" x="281" y="0"/>
	<anchor name="top" x="433" y="714"/>
	<anchor name="center" x="379" y="357"/>
	<anchor name="topright" x="751" y="714"/>
</glyph>
<glyph name="idotless" format="2">
	<unicode hex="0131"/>
	<advance width="297"/>
	<outline>
		<contour>
			<point x="18" y="0" type="line"/>
			<point x="165" y="0" type="line"/>
			<point x="281" y="546" type="line"/>
			<point x="134" y="546" type="line"/>
		</contour>
	</outline>
	<anchor name="bottom" x="91" y="0"/>
	<anchor name="top" x="207" y="546"/>
</glyph>
<glyph name="Lslash" format="2">
	<unicode hex="0141"/>
	<advance width="518"/>
	<outline>
		<contour>
			<point x="27" y="0" type="line"/>
			<point x="425" y="0" type="line"/>
			<point x="451" y="125" type="line"/>
			<point x="201" y="125" type="line"/>
			<point x="243" y="324" type="line"/>
			<point x="395" y="406" type="line"/>
			<point x="343" y="505" type="line"/>
			<point x="274" y="467" type="line"/>
			<point x="326" y="714" type="line"/>
			<point x="178" y="714" type="line"/>
			<point x="107" y="377" type="line"/>
			<point x="-1" y="319" type="line"/>
			<point x="49" y="220" type="line"/>
			<point x="77" y="235" type="line"/>
		</contour>
	</outline>
	<anchor name="bottom" x="201" y="0"/>
	<anchor name="top" x="353" y="714"/>
</glyph>
<glyph name="Ereversed" format="2">
	<unicode hex="018E"/>
	<advance width="542"/>
	<outline>
		<contour>
			<point x="-3" y="0" type="line"/>
			<point x="396" y="0" type="line"/>
			<point x="547" y="714" type="line"/>
			<point x="148" y="714" type="line"/>
			<point x="122" y="590" type="line"/>
			<point x="376" y="590" type="line"/>
			<point x="343" y="433" type="line"/>
			<point x="106" y="433" type="line"/>
			<point x="80" y="309" type="line"/>
			<point x="316" y="309" type="line"/>
			<point x="277" y="125" type="line"/>
			<point x="23" y="125" type="line"/>
		</contour>
	</outline>
	<anchor name="bottom" x="212.972" y="0"/>
	<anchor name="top" x="364.737" y="714"/>
	<anchor name="topright" x="548" y="714"/>
</glyph>
<glyph name="clickdental" format="2">
	<unicode hex="01C0"/>
	<advance width="291"/>
	<outline>
		<contour>
			<point x="34" y="0" type="line"/>
			<point x="141" y="0" type="line"/>
			<point x="303" y="760" type="line"/>
			<point x="196" y="760" type="line"/>
		</contour>
	</outline>
	<anchor name="bottom" x="87" y="0"/>
	<anchor name="top" x="249" y="760"/>
</glyph>
<glyph name="Cstroke" format="2">
	<unicode hex="023B"/>
	<advance width="612"/>
	<outline>
		<contour>
			<point x="120" y="-75" type="line"/>
			<point x="214" y="-75" type="line"/>
			<point x="617" y="760" type="line"/>
			<point x="525" y="760" type="line"/>
		</contour>
		<component base="C"/>
	</outline>
	<anchor name="bottom" x="320" y="0"/>
	<anchor name="top" x="436" y="714"/>
	<anchor name="topright" x="686" y="714"/>
</glyph>
<glyph name="cstroke" format="2">
	<unicode hex="023C"/>
	<advance width="483"/>
	<outline>
		<contour>
			<point x="40" y="-155" type="line"/>
			<point x="134" y="-155" type="line"/>
			<point x="537" y="680" type="line"/>
			<point x="445" y="680" type="line"/>
		</contour>
		<component base="c"/>
	</outline>
	<anchor name="bottom" x="194" y="-155"/>
	<anchor name="top" x="356" y="680"/>
	<anchor name="topright" x="521" y="546"/>
</glyph>
<glyph name="Lbar" format="2">
	<unicode hex="023D"/>
	<advance width="518"/>
	<outline>
		<contour>
			<point x="26" y="0" type="line"/>
			<point x="425" y="0" type="line"/>
			<point x="451" y="125" type="line"/>
			<point x="201" y="125" type="line"/>
			<point x="236" y="291" type="line"/>
			<point x="348" y="291" type="line"/>
			<point x="375" y="415" type="line"/>
			<point x="262" y="415" type="line"/>
			<point x="326" y="714" type="line"/>
			<point x="177" y="714" type="line"/>
			<point x="114" y="415" type="line"/>
			<point x="50" y="415" type="line"/>
			<point x="23" y="291" type="line"/>
			<point x="88" y="291" type="line"/>
		</contour>
	</outline>
	<anchor name="bottom" x="201" y="0"/>
	<anchor name="top" x="353" y="714"/>
</glyph>
<glyph name="Estroke" format="2">
	<unicode hex="0246"/>
	<advance width="542"/>
	<outline>
		<contour>
			<point x="93" y="-75" type="line"/>
			<point x="189" y="-75" type="line"/>
			<point x="571" y="760" type="line"/>
			<point x="475" y="760" type="line"/>
		</contour>
		<component base="E"/>
	</outline>
	<anchor name="bottom" x="246" y="0"/>
	<anchor name="top" x="368" y="714"/>
	<anchor name="topright" x="616" y="714"/>
</glyph>
<glyph name="ubar" format="2">
	<unicode hex="0289"/>
	<advance width="604"/>
	<outline>
		<contour>
			<point x="-3" y="249" type="line"/>
			<point x="593" y="249" type="line"/>
			<point x="614" y="346" type="line"/>
			<point x="18" y="346" type="line"/>
		</contour>
		<component base="u"/>
	</outline>
	<anchor name="bottom" x="236" y="0"/>
	<anchor name="top" x="360" y="546"/>
	<anchor name="topright" x="642" y="546"/>
</glyph>
<glyph name="Lsmall" format="2">
	<unicode hex="029F"/>
	<advance width="430"/>
	<outline>
		<contour>
			<point x="19" y="0" type="line"/>
			<point x="349" y="0" type="line"/>
			<point x="373" y="114" type="line"/>
			<point x="181" y="114" type="line"/>
			<point x="274" y="546" type="line"/>
			<point x="134" y="546" type="line"/>
		</contour>
	</outline>
	<anchor name="bottom" x="174" y="0"/>
	<anchor name="top" x="290" y="546"/>
</glyph>
<glyph name="macronmod" format="2">
	<unicode hex="02C9"/>
	<advance width="382"/>
	<outline>
		<contour>
			<point x="111" y="606" type="line"/>
			<point x="413" y="606" type="line"/>
			<point x="435" y="709" type="line"/>
			<point x="133" y="709" type="line"/>
		</contour>
	</outline>
</glyph>
<glyph name="lowdownarrowheadmod" format="2">
	<unicode hex="02EF"/>
	<advance width="413"/>
	<outline>
		<contour>
			<point x="74" y="-240" type="line"/>
			<point x="123" y="-240" type="line"/>
			<point x="311" y="-18" type="line"/>
			<point x="229" y="-18" type="line"/>
			<point x="111" y="-152" type="line"/>
			<point x="53" y="-18" type="line"/>
			<point x="-22" y="-18" type="line"/>
		</contour>
	</outline>
</glyph>
<glyph name="lowuparrowheadmod" format="2">
	<unicode hex="02F0"/>
	<advance width="413"/>
	<outline>
		<contour>
			<point x="-69" y="-240" type="line"/>
			<point x="13" y="-240" type="line"/>
			<point x="132" y="-108" type="line"/>
			<point x="189" y="-240" type="line"/>
			<point x="264" y="-240" type="line"/>
			<point x="168" y="-20" type="line"/>
			<point x="120" y="-20" type="line"/>
		</contour>
	</outline>
</glyph>
<glyph name="beginhightonemod" format="2">
	<unicode hex="02F9"/>
	<advance width="298"/>
	<outline>
		<contour>
			<point x="127" y="435" type="line"/>
			<point x="180" y="435" type="line"/>
			<point x="180" y="628" type="line"/>
			<point x="333" y="628" type="line"/>
			<point x="333" y="681" type="line"/>
			<point x="127" y="681" type="line"/>
		</contour>
	</outline>
</glyph>
<glyph name="overlinecomb" format="2">
	<unicode hex="0305"/>
	<outline>
		<contour>
			<point x="-115" y="739" type="line"/>
			<point x="289" y="739" type="line"/>
			<point x="310" y="842" type="line"/>
			<point x="-94" y="842" type="line"/>
		</contour>
	</outline>
	<anchor name="_top" x="46" y="546"/>
	<anchor name="top" x="100" y="842"/>
</glyph>
<glyph name="dblverticallineabovecomb" format="2">
	<unicode hex="030E"/>
	<outline>
		<contour>
			<point x="101" y="596" type="line"/>
			<point x="201" y="596" type="line"/>
			<point x="238" y="770" type="line"/>
			<point x="138" y="770" type="line"/>
		</contour>
		<contour>
			<point x="-66" y="596" type="line"/>
			<point x="33" y="596" type="line"/>
			<point x="70" y="770" type="line"/>
			<point x="-30" y="770" type="line"/>
		</contour>
	</outline>
	<anchor name="_top" x="57" y="546"/>
	<anchor name="top" x="88" y="770"/>
</glyph>
<glyph name="righttackbelowcomb" format="2">
	<unicode hex="0319"/>
	<outline>
		<contour>
			<point x="-184" y="-218" type="line"/>
			<point x="-118" y="-218" type="line"/>
			<point x="-104" y="-153" type="line"/>
			<point x="5" y="-153" type="line"/>
			<point x="18" y="-93" type="line"/>
			<point x="-91" y="-93" type="line"/>
			<point x="-77" y="-28" type="line"/>
			<point x="-143" y="-28" type="line"/>
		</contour>
	</outline>
	<anchor name="_bottom" x="-57" y="0"/>
	<anchor name="bottom" x="-81" y="-218"/>
</glyph>
<glyph name="dotbelowcomb" format="2">
	<unicode hex="0323"/>
	<outline>
		<contour>
			<point x="-378" y="-210" type="curve" smooth="yes"/>
			<point x="-318" y="-210"/>
			<point x="-290" y="-175"/>
			<point x="-290" y="-123" type="curve" smooth="yes"/>
			<point x="-290" y="-79"/>
			<point x="-324" y="-64"/>
			<point x="-363" y="-64" type="curve" smooth="yes"/>
			<point x="-419" y="-64"/>
			<point x="-452" y="-94"/>
			<point x="-452" y="-150" type="curve" smooth="yes"/>
			<point x="-452" y="-194"/>
			<point x="-420" y="-210"/>
		</contour>
	</outline>
	<anchor name="_bottom" x="-342" y="0"/>
	<anchor name="bottom" x="-369" y="-210"/>
</glyph>
<glyph name="lowlinecomb" format="2">
	<unicode hex="0332"/>
	<outline>
		<contour>
			<point x="-304" y="-158" type="line"/>
			<point x="144" y="-158" type="line"/>
			<point x="158" y="-90" type="line"/>
			<point x="-290" y="-90" type="line"/>
		</contour>
	</outline>
	<anchor name="_bottom" x="-47" y="0"/>
	<anchor name="bottom" x="-71" y="-158"/>
</glyph>
<glyph name="slashlongcomb" format="2">
	<unicode hex="0338"/>
	<outline>
		<contour>
			<point x="-282" y="-58" type="line"/>
			<point x="-186" y="-58" type="line"/>
			<point x="282" y="760" type="line"/>
			<point x="185" y="760" type="line"/>
		</contour>
	</outline>
	<anchor name="_center" x="0" y="351"/>
</glyph>
<glyph name="bridgeinvertedbelowcomb" format="2">
	<unicode hex="033A"/>
	<outline>
		<contour>
			<point x="-274" y="-218" type="line"/>
			<point x="81" y="-218" type="line"/>
			<point x="117" y="-48" type="line"/>
			<point x="51" y="-48" type="line"/>
			<point x="28" y="-158" type="line"/>
			<point x="-195" y="-158" type="line"/>
			<point x="-172" y="-48" type="line"/>
			<point x="-238" y="-48" type="line"/>
		</contour>
	</outline>
	<anchor name="_bottom" x="-50" y="0"/>
	<anchor name="bottom" x="-77" y="-218"/>
</glyph>
<glyph name="xabovecomb" format="2">
	<unicode hex="033D"/>
	<outline>
		<contour>
			<point x="11" y="571" type="line"/>
			<point x="83" y="630" type="line"/>
			<point x="130" y="571" type="line"/>
			<point x="182" y="613" type="line"/>
			<point x="135" y="673" type="line"/>
			<point x="207" y="732" type="line"/>
			<point x="173" y="775" type="line"/>
			<point x="101" y="715" type="line"/>
			<point x="54" y="775" type="line"/>
			<point x="3" y="732" type="line"/>
			<point x="50" y="673" type="line"/>
			<point x="-22" y="613" type="line"/>
		</contour>
	</outline>
	<anchor name="_top" x="66" y="546"/>
	<anchor name="top" x="95" y="775"/>
</glyph>
<glyph name="doublemacroncomb" format="2">
	<unicode hex="035E"/>
	<outline>
		<contour>
			<point x="-176" y="606" type="line"/>
			<point x="336" y="606" type="line"/>
			<point x="358" y="709" type="line"/>
			<point x="-154" y="709" type="line"/>
		</contour>
	</outline>
	<anchor name="_top" x="-133" y="546"/>
	<anchor name="top" x="93" y="709"/>
</glyph>
<glyph name="arrowdoublerightbelowcomb" format="2">
	<unicode hex="0362"/>
	<outline>
		<contour>
			<point x="148" y="-229" type="line"/>
			<point x="286" y="-127" type="line"/>
			<point x="148" y="-25" type="line"/>
			<point x="148" y="-93" type="line"/>
			<point x="-483" y="-93" type="line"/>
			<point x="-498" y="-161" type="line"/>
			<point x="148" y="-161" type="line"/>
		</contour>
	</outline>
	<anchor name="_bottom" x="-379" y="0"/>
	<anchor name="bottom" x="-104" y="-229"/>
</glyph>
<glyph name="Heta" format="2">
	<unicode hex="0370"/>
	<advance width="351"/>
	<outline>
		<contour>
			<point x="-48" y="0" type="line"/>
			<point x="101" y="0" type="line"/>
			<point x="166" y="308" type="line"/>
			<point x="356" y="308" type="line"/>
			<point x="383" y="434" type="line"/>
			<point x="193" y="434" type="line"/>
			<point x="252" y="714" type="line"/>
			<point x="103" y="714" type="line"/>
		</contour>
	</outline>
</glyph>
<glyph name="heta" format="2">
	<unicode hex="0371"/>
	<advance width="410"/>
	<outline>
		<contour>
			<point x="18" y="0" type="line"/>
			<point x="166" y="0" type="line"/>
			<point x="214" y="225" type="line"/>
			<point x="373" y="225" type="line"/>
			<point x="398" y="336" type="line"/>
			<point x="238" y="336" type="line"/>
			<point x="283" y="546" type="line"/>
			<point x="135" y="546" type="line"/>
		</contour>
	</outline>
</glyph>
<glyph name="numeral-greek" format="2">
	<unicode hex="0374"/>
	<advance width="268"/>
	<outline>
		<contour>
			<point x="88" y="576" type="line"/>
			<point x="188" y="576" type="line"/>
			<point x="341" y="756" type="line"/>
			<point x="343" y="766" type="line"/>
			<point x="176" y="766" type="line"/>
			<point x="91" y="589" type="line"/>
		</contour>
	</outline>
</glyph>
<glyph name="lowernumeral-greek" format="2">
	<unicode hex="0375"/>
	<advance width="269"/>
	<outline>
		<contour>
			<point x="-62" y="-160" type="line"/>
			<point x="105" y="-160" type="line"/>
			<point x="190" y="17" type="line"/>
			<point x="193" y="30" type="line"/>
			<point x="93" y="30" type="line"/>
			<point x="-60" y="-150" type="line"/>
		</contour>
	</outline>
</glyph>
<glyph name="ypogegrammeni" format="2">
	<unicode hex="037A"/>
	<advance width="263"/>
	<outline>
		<contour>
			<point x="63" y="-240" type="curve" smooth="yes"/>
			<point x="95" y="-240"/>
			<point x="124" y="-234"/>
			<point x="142" y="-227" type="curve"/>
			<point x="159" y="-145" type="line"/>
			<point x="150" y="-148"/>
			<point x="141" y="-151"/>
			<point x="129" y="-151" type="curve" smooth="yes"/>
			<point x="109" y="-151"/>
			<point x="101" y="-142"/>
			<point x="106" y="-117" type="curve" smooth="yes"/>
			<point x="120" y="-52" type="line"/>
			<point x="1" y="-52" type="line"/>
			<point x="-20" y="-152" type="line" smooth="yes"/>
			<point x="-34" y="-217"/>
			<point x="0" y="-240"/>
		</contour>
	</outline>
	<anchor name="_bottom" x="71" y="0"/>
</glyph>
<glyph name="tonos" format="2">
	<unicode hex="0384"/>
	<advance width="294"/>
	<outline>
		<contour>
			<point x="111" y="606" type="line"/>
			<point x="211" y="606" type="line"/>
			<point x="359" y="766" type="line"/>
			<point x="361" y="776" type="line"/>
			<point x="194" y="776" type="line"/>
			<point x="114" y="619" type="line"/>
		</contour>
	</outline>
	<anchor name="_top" x="139" y="546"/>
</glyph>
<glyph name="Lambda" format="2">
	<unicode hex="039B"/>
	<advance width="600"/>
	<outline>
		<contour>
			<point x="-60" y="0" type="line"/>
			<point x="96" y="0" type="line"/>
			<point x="305" y="430" type="line" smooth="yes"/>
			<point x="320" y="460"/>
			<point x="346" y="522"/>
			<point x="361" y="573" type="curve"/>
			<point x="363" y="573" type="line"/>
			<point x="362" y="519"/>
			<point x="364" y="449"/>
			<point x="367" y="408" type="curve" smooth="yes"/>
			<point x="396" y="0" type="line"/>
			<point x="540" y="0" type="line"/>
			<point x="472" y="717" type="line"/>
			<point x="305" y="717" type="line"/>
		</contour>
	</outline>
</glyph>
<glyph name="Omega" format="2">
	<unicode hex="03A9"/>
	<advance width="732"/>
	<outline>
		<contour>
			<point x="-23" y="0" type="line"/>
			<point x="254" y="0" type="line"/>
			<point x="283" y="136" type="line"/>
			<point x="205" y="190"/>
			<point x="200" y="289"/>
			<point x="213" y="384" type="curve" smooth="yes"/>
			<point x="232" y="518"/>
			<point x="293" y="600"/>
			<point x="407" y="600" type="curve" smooth="yes"/>
			<point x="521" y="600"/>
			<point x="560" y="518"/>
			<point x="541" y="385" type="curve" smooth="yes"/>
			<point x="528" y="291"/>
			<point x="500" y="188"/>
			<point x="389" y="136" type="curve"/>
			<point x="360" y="0" type="line"/>
			<point x="639" y="0" type="line"/>
			<point x="666" y="127" type="line"/>
			<point x="518" y="127" type="line"/>
			<point x="621" y="185"/>
			<point x="678" y="281"/>
			<point x="695" y="405" type="curve" smooth="yes"/>
			<point x="721" y="587"/>
			<point x="634" y="725"/>
			<point x="425" y="725" type="curve" smooth="yes"/>
			<point x="216" y="725"/>
			<point x="91" y="587"/>
			<point x="65" y="406" type="curve" smooth="yes"/>
			<point x="48" y="282"/>
			<point x="73" y="184"/>
			<point x="150" y="127" type="curve"/>
			<point x="4" y="127" type="line"/>
		</contour>
	</outline>
	<anchor name="bottom" x="306" y="0"/>
	<anchor name="topleft" x="124" y="714"/>
</glyph>
<glyph name="alpha" format="2">
	<unicode hex="03B1"/>
	<advance width="611"/>
	<outline>
		<contour>
			<point x="190" y="-10" type="curve" smooth="yes"/>
			<point x="269" y="-10"/>
			<point x="307" y="43"/>
			<point x="333" y="74" type="curve"/>
			<point x="337" y="74" type="line"/>
			<point x="347" y="8"/>
			<point x="397" y="-10"/>
			<point x="458" y="-10" type="curve" smooth="yes"/>
			<point x="480" y="-10"/>
			<point x="513" y="-4"/>
			<point x="528" y="3" type="curve"/>
			<point x="553" y="120" type="line"/>
			<point x="545" y="117"/>
			<point x="533" y="115"/>
			<point x="523" y="115" type="curve" smooth="yes"/>
			<point x="501" y="115"/>
			<point x="491" y="127"/>
			<point x="491" y="150" type="curve" smooth="yes"/>
			<point x="491" y="157"/>
			<point x="492" y="164"/>
			<point x="494" y="173" type="curve" smooth="yes"/>
			<point x="573" y="546" type="line"/>
			<point x="461" y="546" type="line"/>
			<point x="432" y="475" type="line"/>
			<point x="428" y="475" type="line"/>
			<point x="402" y="523"/>
			<point x="357" y="556"/>
			<point x="295" y="556" type="curve" smooth="yes"/>
			<point x="144" y="556"/>
			<point x="40" y="377"/>
			<point x="40" y="188" type="curve" smooth="yes"/>
			<point x="40" y="52"/>
			<point x="104" y="-10"/>
		</contour>
		<contour>
			<point x="255" y="109" type="curve" smooth="yes"/>
			<point x="211" y="109"/>
			<point x="189" y="138"/>
			<point x="189" y="202" type="curve" smooth="yes"/>
			<point x="189" y="304"/>
			<point x="242" y="437"/>
			<point x="319" y="437" type="curve" smooth="yes"/>
			<point x="365" y="437"/>
			<point x="386" y="400"/>
			<point x="386" y="348" type="curve" smooth="yes"/>
			<point x="386" y="313"/>
			<point x="378" y="270"/>
			<point x="368" y="235" type="curve" smooth="yes"/>
			<point x="348" y="162"/>
			<point x="309" y="109"/>
		</contour>
	</outline>
	<anchor name="bottom" x="210" y="0"/>
	<anchor name="top" x="299" y="546"/>
</glyph>
<glyph name="gamma" format="2">
	<unicode hex="03B3"/>
	<advance width="510"/>
	<outline>
		<contour>
			<point x="48" y="-210" type="line"/>
			<point x="194" y="-210" type="line"/>
			<point x="240" y="10" type="line"/>
			<point x="425" y="175"/>
			<point x="493" y="334"/>
			<point x="516" y="546" type="curve"/>
			<point x="368" y="546" type="line"/>
			<point x="348" y="356"/>
			<point x="302" y="232"/>
			<point x="214" y="132" type="curve"/>
			<point x="210" y="132" type="line"/>
			<point x="208" y="159"/>
			<point x="207" y="213"/>
			<point x="206" y="243" type="curve" smooth="yes"/>
			<point x="193" y="546" type="line"/>
			<point x="50" y="546" type="line"/>
			<point x="101" y="43" type="line"/>
		</contour>
	</outline>
</glyph>
<glyph name="epsilon" format="2">
	<unicode hex="03B5"/>
	<advance width="454"/>
	<outline>
		<contour>
			<point x="218" y="-10" type="curve" smooth="yes"/>
			<point x="295" y="-10"/>
			<point x="349" y="5"/>
			<point x="392" y="29" type="curve"/>
			<point x="392" y="149" type="line"/>
			<point x="353" y="126"/>
			<point x="308" y="105"/>
			<point x="239" y="105" type="curve" smooth="yes"/>
			<point x="200" y="105"/>
			<point x="174" y="126"/>
			<point x="174" y="162" type="curve" smooth="yes"/>
			<point x="174" y="204"/>
			<point x="216" y="225"/>
			<point x="273" y="225" type="curve" smooth="yes"/>
			<point x="335" y="225" type="line"/>
			<point x="357" y="332" type="line"/>
			<point x="300" y="332" type="line" smooth="yes"/>
			<point x="253" y="332"/>
			<point x="225" y="347"/>
			<point x="225" y="385" type="curve" smooth="yes"/>
			<point x="225" y="428"/>
			<point x="252" y="446"/>
			<point x="301" y="446" type="curve" smooth="yes"/>
			<point x="353" y="446"/>
			<point x="391" y="429"/>
			<point x="433" y="406" type="curve"/>
			<point x="473" y="514" type="line"/>
			<point x="428" y="541"/>
			<point x="372" y="556"/>
			<point x="298" y="556" type="curve" smooth="yes"/>
			<point x="192" y="556"/>
			<point x="95" y="513"/>
			<point x="95" y="394" type="curve" smooth="yes"/>
			<point x="95" y="338"/>
			<point x="128" y="302"/>
			<point x="167" y="285" type="curve"/>
			<point x="167" y="281" type="line"/>
			<point x="82" y="265"/>
			<point x="25" y="223"/>
			<point x="25" y="134" type="curve" smooth="yes"/>
			<point x="25" y="40"/>
			<point x="103" y="-10"/>
		</contour>
	</outline>
	<anchor name="bottom" x="216" y="0"/>
	<anchor name="top" x="299" y="546"/>
</glyph>
<glyph name="zeta" format="2">
	<unicode hex="03B6"/>
	<advance width="441"/>
	<outline>
		<contour>
			<point x="195" y="-202" type="curve"/>
			<point x="336" y="-202" type="line"/>
			<point x="365" y="-157"/>
			<point x="390" y="-123"/>
			<point x="398" y="-65" type="curve" smooth="yes"/>
			<point x="410" y="19"/>
			<point x="376" y="68"/>
			<point x="286" y="105" type="curve" smooth="yes"/>
			<point x="188" y="145"/>
			<point x="173" y="188"/>
			<point x="181" y="245" type="curve" smooth="yes"/>
			<point x="192" y="321"/>
			<point x="240" y="380"/>
			<point x="364" y="504" type="curve" smooth="yes"/>
			<point x="527" y="666" type="line"/>
			<point x="548" y="760" type="line"/>
			<point x="131" y="760" type="line"/>
			<point x="107" y="648" type="line"/>
			<point x="249" y="648" type="line"/>
			<point x="274" y="648"/>
			<point x="333" y="650"/>
			<point x="361" y="656" type="curve"/>
			<point x="269" y="574" type="line" smooth="yes"/>
			<point x="159" y="476"/>
			<point x="45" y="365"/>
			<point x="26" y="230" type="curve" smooth="yes"/>
			<point x="10" y="117"/>
			<point x="64" y="50"/>
			<point x="173" y="2" type="curve" smooth="yes"/>
			<point x="245" y="-30"/>
			<point x="252" y="-52"/>
			<point x="248" y="-86" type="curve" smooth="yes"/>
			<point x="245" y="-115"/>
			<point x="232" y="-151"/>
		</contour>
	</outline>
</glyph>
<glyph name="eta" format="2">
	<unicode hex="03B7"/>
	<advance width="605"/>
	<outline>
		<contour>
			<point x="397" y="319" type="curve" smooth="yes"/>
			<point x="280" y="-240" type="line"/>
			<point x="427" y="-240" type="line"/>
			<point x="542" y="311" type="line"/>
			<point x="549" y="344"/>
			<point x="553" y="375"/>
			<point x="553" y="399" type="curve" smooth="yes"/>
			<point x="553" y="495"/>
			<point x="506" y="556"/>
			<point x="412" y="556" type="curve" smooth="yes"/>
			<point x="336" y="556"/>
			<point x="285" y="510"/>
			<point x="239" y="445" type="curve"/>
			<point x="236" y="445" type="line"/>
			<point x="246" y="546" type="line"/>
			<point x="134" y="546" type="line"/>
			<point x="18" y="0" type="line"/>
			<point x="165" y="0" type="line"/>
			<point x="213" y="226" type="line" smooth="yes"/>
			<point x="238" y="342"/>
			<point x="284" y="437"/>
			<point x="353" y="437" type="curve" smooth="yes"/>
			<point x="388" y="437"/>
			<point x="405" y="418"/>
			<point x="405" y="377" type="curve" smooth="yes"/>
			<point x="405" y="361"/>
			<point x="402" y="341"/>
		</contour>
	</outline>
	<anchor name="bottom" x="78" y="0"/>
	<anchor name="top" x="367" y="546"/>
</glyph>
<glyph name="theta" format="2">
	<unicode hex="03B8"/>
	<advance width="568"/>
	<outline>
		<contour>
			<point x="233" y="-10" type="curve" smooth="yes"/>
			<point x="411" y="-10"/>
			<point x="492" y="136"/>
			<point x="535" y="336" type="curve" smooth="yes"/>
			<point x="553" y="418"/>
			<point x="560" y="486"/>
			<point x="560" y="544" type="curve" smooth="yes"/>
			<point x="560" y="687"/>
			<point x="497" y="765"/>
			<point x="373" y="765" type="curve" smooth="yes"/>
			<point x="199" y="765"/>
			<point x="122" y="634"/>
			<point x="70" y="427" type="curve" smooth="yes"/>
			<point x="50" y="345"/>
			<point x="42" y="264"/>
			<point x="42" y="209" type="curve" smooth="yes"/>
			<point x="42" y="85"/>
			<point x="93" y="-10"/>
		</contour>
		<contour>
			<point x="244" y="98" type="curve" smooth="yes"/>
			<point x="203" y="98"/>
			<point x="186" y="133"/>
			<point x="186" y="188" type="curve" smooth="yes"/>
			<point x="186" y="230"/>
			<point x="191" y="274"/>
			<point x="201" y="325" type="curve"/>
			<point x="379" y="325" type="line"/>
			<point x="343" y="171"/>
			<point x="303" y="98"/>
		</contour>
		<contour>
			<point x="225" y="436" type="line"/>
			<point x="259" y="578"/>
			<point x="303" y="657"/>
			<point x="361" y="657" type="curve" smooth="yes"/>
			<point x="398" y="657"/>
			<point x="415" y="623"/>
			<point x="415" y="572" type="curve" smooth="yes"/>
			<point x="415" y="526"/>
			<point x="410" y="486"/>
			<point x="401" y="436" type="curve"/>
		</contour>
	</outline>
</glyph>
<glyph name="iota" format="2">
	<unicode hex="03B9"/>
	<advance width="376"/>
	<outline>
		<contour>
			<point x="203" y="-10" type="curve" smooth="yes"/>
			<point x="237" y="-10"/>
			<point x="278" y="-5"/>
			<point x="303" y="2" type="curve"/>
			<point x="328" y="119" type="line"/>
			<point x="303" y="113"/>
			<point x="283" y="110"/>
			<point x="256" y="110" type="curve" smooth="yes"/>
			<point x="223" y="110"/>
			<point x="198" y="121"/>
			<point x="198" y="162" type="curve" smooth="yes"/>
			<point x="198" y="171"/>
			<point x="199" y="181"/>
			<point x="202" y="193" type="curve" smooth="yes"/>
			<point x="277" y="546" type="line"/>
			<point x="128" y="546" type="line"/>
			<point x="48" y="171" type="line" smooth="yes"/>
			<point x="44" y="154"/>
			<point x="42" y="137"/>
			<point x="42" y="121" type="curve" smooth="yes"/>
			<point x="42" y="46"/>
			<point x="87" y="-10"/>
		</contour>
	</outline>
	<anchor name="bottom" x="204" y="0"/>
	<anchor name="top" x="204" y="546"/>
</glyph>
<glyph name="lambda" format="2">
	<unicode hex="03BB"/>
	<advance width="566"/>
	<outline>
		<contour>
			<point x="420" y="-10" type="curve" smooth="yes"/>
			<point x="445" y="-10"/>
			<point x="491" y="-3"/>
			<point x="509" y="5" type="curve"/>
			<point x="533" y="120" type="line"/>
			<point x="521" y="117"/>
			<point x="513" y="115"/>
			<point x="498" y="115" type="curve" smooth="yes"/>
			<point x="470" y="115"/>
			<point x="450" y="131"/>
			<point x="437" y="214" type="curve" smooth="yes"/>
			<point x="373" y="612" type="line" smooth="yes"/>
			<point x="353" y="734"/>
			<point x="308" y="765"/>
			<point x="194" y="765" type="curve" smooth="yes"/>
			<point x="160" y="765"/>
			<point x="131" y="761"/>
			<point x="112" y="757" type="curve"/>
			<point x="87" y="639" type="line"/>
			<point x="100" y="642"/>
			<point x="120" y="645"/>
			<point x="143" y="645" type="curve" smooth="yes"/>
			<point x="195" y="645"/>
			<point x="234" y="636"/>
			<point x="242" y="574" type="curve" smooth="yes"/>
			<point x="246" y="542" type="line"/>
			<point x="-56" y="0" type="line"/>
			<point x="107" y="0" type="line"/>
			<point x="209" y="217" type="line" smooth="yes"/>
			<point x="239" y="281"/>
			<point x="260" y="323"/>
			<point x="283" y="382" type="curve"/>
			<point x="286" y="382" type="line"/>
			<point x="287" y="327"/>
			<point x="293" y="266"/>
			<point x="299" y="214" type="curve" smooth="yes"/>
			<point x="311" y="101" type="line" smooth="yes"/>
			<point x="318" y="34"/>
			<point x="339" y="-10"/>
		</contour>
	</outline>
</glyph>
<glyph name="mu" format="2">
	<unicode hex="03BC"/>
	<advance width="640"/>
	<outline>
		<contour>
			<point x="-33" y="-240" type="line"/>
			<point x="114" y="-240" type="line"/>
			<point x="147" y="-84" type="line" smooth="yes"/>
			<point x="155" y="-48"/>
			<point x="167" y="13"/>
			<point x="169" y="34" type="curve"/>
			<point x="172" y="34" type="line"/>
			<point x="187" y="6"/>
			<point x="206" y="-10"/>
			<point x="246" y="-10" type="curve" smooth="yes"/>
			<point x="278" y="-10"/>
			<point x="328" y="13"/>
			<point x="369" y="101" type="curve"/>
			<point x="375" y="101" type="line"/>
			<point x="373" y="11"/>
			<point x="410" y="-10"/>
			<point x="477" y="-10" type="curve" smooth="yes"/>
			<point x="499" y="-10"/>
			<point x="536" y="-3"/>
			<point x="547" y="3" type="curve"/>
			<point x="572" y="120" type="line"/>
			<point x="567" y="118"/>
			<point x="551" y="115"/>
			<point x="542" y="115" type="curve" smooth="yes"/>
			<point x="520" y="115"/>
			<point x="503" y="128"/>
			<point x="513" y="173" type="curve" smooth="yes"/>
			<point x="593" y="546" type="line"/>
			<point x="446" y="546" type="line"/>
			<point x="399" y="325" type="line" smooth="yes"/>
			<point x="370" y="189"/>
			<point x="323" y="109"/>
			<point x="259" y="109" type="curve" smooth="yes"/>
			<point x="205" y="109"/>
			<point x="199" y="149"/>
			<point x="215" y="227" type="curve" smooth="yes"/>
			<point x="282" y="546" type="line"/>
			<point x="135" y="546" type="line"/>
		</contour>
	</outline>
</glyph>
<glyph name="nu" format="2">
	<unicode hex="03BD"/>
	<advance width="510"/>
	<outline>
		<contour>
			<point x="106" y="0" type="line"/>
			<point x="233" y="0" type="line"/>
			<point x="425" y="175"/>
			<point x="493" y="334"/>
			<point x="516" y="546" type="curve"/>
			<point x="368" y="546" type="line"/>
			<point x="348" y="356"/>
			<point x="302" y="232"/>
			<point x="214" y="132" type="curve"/>
			<point x="210" y="132" type="line"/>
			<point x="208" y="159"/>
			<point x="207" y="213"/>
			<point x="206" y="243" type="curve" smooth="yes"/>
			<point x="193" y="546" type="line"/>
			<point x="50" y="546" type="line"/>
		</contour>
	</outline>
</glyph>
<glyph name="rho" format="2">
	<unicode hex="03C1"/>
	<advance width="586"/>
	<outline>
		<contour>
			<point x="79" y="288" type="curve" smooth="yes"/>
			<point x="-32" y="-240" type="line"/>
			<point x="114" y="-240" type="line"/>
			<point x="143" y="-103" type="line" smooth="yes"/>
			<point x="154" y="-49"/>
			<point x="163" y="0"/>
			<point x="169" y="51" type="curve"/>
			<point x="196" y="15"/>
			<point x="239" y="-10"/>
			<point x="295" y="-10" type="curve" smooth="yes"/>
			<point x="457" y="-10"/>
			<point x="541" y="148"/>
			<point x="541" y="344" type="curve" smooth="yes"/>
			<point x="541" y="471"/>
			<point x="471" y="556"/>
			<point x="338" y="556" type="curve" smooth="yes"/>
			<point x="163" y="556"/>
			<point x="114" y="453"/>
		</contour>
		<contour>
			<point x="274" y="109" type="curve" smooth="yes"/>
			<point x="243" y="109"/>
			<point x="217" y="124"/>
			<point x="201" y="152" type="curve"/>
			<point x="228" y="281" type="line" smooth="yes"/>
			<point x="250" y="387"/>
			<point x="272" y="437"/>
			<point x="329" y="437" type="curve" smooth="yes"/>
			<point x="370" y="437"/>
			<point x="392" y="403"/>
			<point x="392" y="346" type="curve" smooth="yes"/>
			<point x="392" y="267"/>
			<point x="362" y="109"/>
		</contour>
	</outline>
	<anchor name="bottom" x="178" y="-240"/>
	<anchor name="top" x="348" y="546"/>
</glyph>
<glyph name="sigma" format="2">
	<unicode hex="03C3"/>
	<advance width="607"/>
	<outline>
		<contour>
			<point x="245" y="-10" type="curve" smooth="yes"/>
			<point x="417" y="-10"/>
			<point x="514" y="125"/>
			<point x="534" y="242" type="curve" smooth="yes"/>
			<point x="546" y="317"/>
			<point x="535" y="383"/>
			<point x="493" y="434" type="curve"/>
			<point x="606" y="434" type="line"/>
			<point x="630" y="546" type="line"/>
			<point x="362" y="546" type="line" smooth="yes"/>
			<point x="201" y="546"/>
			<point x="81" y="477"/>
			<point x="48" y="276" type="curve" smooth="yes"/>
			<point x="22" y="117"/>
			<point x="96" y="-10"/>
		</contour>
		<contour>
			<point x="269" y="110" type="curve" smooth="yes"/>
			<point x="198" y="110"/>
			<point x="183" y="172"/>
			<point x="198" y="266" type="curve" smooth="yes"/>
			<point x="217" y="395"/>
			<point x="270" y="434"/>
			<point x="343" y="434" type="curve" smooth="yes"/>
			<point x="368" y="434" type="line"/>
			<point x="394" y="401"/>
			<point x="401" y="347"/>
			<point x="387" y="265" type="curve" smooth="yes"/>
			<point x="373" y="178"/>
			<point x="338" y="110"/>
		</contour>
	</outline>
	<anchor name="bottom" x="244" y="0"/>
	<anchor name="top" x="360" y="546"/>
</glyph>
<glyph name="upsilon" format="2">
	<unicode hex="03C5"/>
	<advance width="607"/>
	<outline>
		<contour>
			<point x="243" y="-9" type="curve" smooth="yes"/>
			<point x="411" y="-9"/>
			<point x="521" y="86"/>
			<point x="560" y="266" type="curve" smooth="yes"/>
			<point x="578" y="351"/>
			<point x="582" y="479"/>
			<point x="574" y="546" type="curve"/>
			<point x="427" y="546" type="line"/>
			<point x="434" y="458"/>
			<point x="427" y="348"/>
			<point x="411" y="272" type="curve" smooth="yes"/>
			<point x="387" y="161"/>
			<point x="332" y="110"/>
			<point x="259" y="110" type="curve" smooth="yes"/>
			<point x="203" y="110"/>
			<point x="190" y="144"/>
			<point x="205" y="215" type="curve" smooth="yes"/>
			<point x="275" y="546" type="line"/>
			<point x="128" y="546" type="line"/>
			<point x="60" y="225" type="line" smooth="yes"/>
			<point x="32" y="94"/>
			<point x="80" y="-9"/>
		</contour>
	</outline>
	<anchor name="bottom" x="231" y="0"/>
	<anchor name="top" x="341" y="546"/>
</glyph>
<glyph name="chi" format="2">
	<unicode hex="03C7"/>
	<advance width="598"/>
	<outline>
		<contour>
			<point x="412" y="-240" type="curve" smooth="yes"/>
			<point x="454" y="-240"/>
			<point x="470" y="-235"/>
			<point x="500" y="-225" type="curve"/>
			<point x="525" y="-109" type="line"/>
			<point x="503" y="-114"/>
			<point x="488" y="-115"/>
			<point x="474" y="-115" type="curve" smooth="yes"/>
			<point x="437" y="-115"/>
			<point x="421" y="-102"/>
			<point x="410" y="-58" type="curve" smooth="yes"/>
			<point x="283" y="431" type="line" smooth="yes"/>
			<point x="260" y="518"/>
			<point x="219" y="553"/>
			<point x="149" y="553" type="curve" smooth="yes"/>
			<point x="119" y="553"/>
			<point x="97" y="546"/>
			<point x="70" y="538" type="curve"/>
			<point x="45" y="419" type="line"/>
			<point x="68" y="426"/>
			<point x="90" y="428"/>
			<point x="103" y="428" type="curve" smooth="yes"/>
			<point x="134" y="428"/>
			<point x="151" y="412"/>
			<point x="163" y="364" type="curve" smooth="yes"/>
			<point x="278" y="-97" type="line" smooth="yes"/>
			<point x="302" y="-193"/>
			<point x="324" y="-240"/>
		</contour>
		<contour>
			<point x="-59" y="-241" type="line"/>
			<point x="93" y="-241" type="line"/>
			<point x="278" y="57" type="line"/>
			<point x="239" y="187" type="line"/>
		</contour>
		<contour>
			<point x="332" y="113" type="line"/>
			<point x="639" y="546" type="line"/>
			<point x="487" y="546" type="line"/>
			<point x="293" y="243" type="line"/>
		</contour>
	</outline>
</glyph>
<glyph name="psi" format="2">
	<unicode hex="03C8"/>
	<advance width="789"/>
	<outline>
		<contour>
			<point x="217" y="-240" type="line"/>
			<point x="359" y="-240" type="line"/>
			<point x="408" y="-9" type="line"/>
			<point x="553" y="0"/>
			<point x="701" y="76"/>
			<point x="745" y="281" type="curve" smooth="yes"/>
			<point x="763" y="369"/>
			<point x="768" y="452"/>
			<point x="760" y="546" type="curve"/>
			<point x="613" y="546" type="line"/>
			<point x="618" y="453"/>
			<point x="615" y="370"/>
			<point x="595" y="282" type="curve" smooth="yes"/>
			<point x="567" y="157"/>
			<point x="520" y="116"/>
			<point x="432" y="106" type="curve"/>
			<point x="571" y="760" type="line"/>
			<point x="429" y="760" type="line"/>
			<point x="290" y="105" type="line"/>
			<point x="206" y="113"/>
			<point x="190" y="144"/>
			<point x="214" y="257" type="curve" smooth="yes"/>
			<point x="275" y="546" type="line"/>
			<point x="128" y="546" type="line"/>
			<point x="67" y="261" type="line" smooth="yes"/>
			<point x="24" y="61"/>
			<point x="121" y="-3"/>
			<point x="266" y="-9" type="curve"/>
		</contour>
	</outline>
</glyph>
<glyph name="kaiSymbol" format="2">
	<unicode hex="03D7"/>
	<advance width="604"/>
	<outline>
		<contour>
			<point x="-17" y="-159" type="line"/>
			<point x="12" y="-171"/>
			<point x="79" y="-196"/>
			<point x="185" y="-196" type="curve" smooth="yes"/>
			<point x="357" y="-196"/>
			<point x="509" y="-112"/>
			<point x="549" y="0" type="curve"/>
			<point x="410" y="300" type="line"/>
			<point x="653" y="546" type="line"/>
			<point x="485" y="546" type="line"/>
			<point x="262" y="311" type="line"/>
			<point x="258" y="311" type="line"/>
			<point x="269" y="346"/>
			<point x="282" y="391"/>
			<point x="290" y="426" type="curve" smooth="yes"/>
			<point x="317" y="546" type="line"/>
			<point x="170" y="546" type="line"/>
			<point x="54" y="0" type="line"/>
			<point x="201" y="0" type="line"/>
			<point x="237" y="170" type="line"/>
			<point x="296" y="205" type="line"/>
			<point x="385" y="0" type="line"/>
			<point x="356" y="-57"/>
			<point x="277" y="-91"/>
			<point x="184" y="-91" type="curve" smooth="yes"/>
			<point x="113" y="-91"/>
			<point x="44" y="-74"/>
			<point x="4" y="-60" type="curve"/>
		</contour>
	</outline>
</glyph>
<glyph name="Digamma" format="2">
	<unicode hex="03DC"/>
	<advance width="531"/>
	<outline>
		<contour>
			<point x="26" y="0" type="line"/>
			<point x="175" y="0" type="line"/>
			<point x="234" y="282" type="line"/>
			<point x="343" y="282" type="line"/>
			<point x="318" y="165" type="line"/>
			<point x="443" y="165" type="line"/>
			<point x="494" y="406" type="line"/>
			<point x="261" y="406" type="line"/>
			<point x="300" y="590" type="line"/>
			<point x="548" y="590" type="line"/>
			<point x="574" y="714" type="line"/>
			<point x="177" y="714" type="line"/>
		</contour>
	</outline>
</glyph>
<glyph name="rhoSymbol" format="2">
	<unicode hex="03F1"/>
	<advance width="639"/>
	<outline>
		<contour>
			<point x="269" y="-240" type="curve"/>
			<point x="399" y="-240" type="line"/>
			<point x="410" y="-226"/>
			<point x="418" y="-207"/>
			<point x="418" y="-184" type="curve" smooth="yes"/>
			<point x="418" y="-124"/>
			<point x="388" y="-89"/>
			<point x="266" y="-70" type="curve" smooth="yes"/>
			<point x="197" y="-59"/>
			<point x="181" y="-29"/>
			<point x="181" y="6" type="curve" smooth="yes"/>
			<point x="181" y="16"/>
			<point x="182" y="37"/>
			<point x="183" y="45" type="curve"/>
			<point x="187" y="45" type="line"/>
			<point x="213" y="19"/>
			<point x="260" y="-10"/>
			<point x="326" y="-10" type="curve" smooth="yes"/>
			<point x="502" y="-10"/>
			<point x="593" y="136"/>
			<point x="593" y="332" type="curve" smooth="yes"/>
			<point x="593" y="475"/>
			<point x="513" y="556"/>
			<point x="380" y="556" type="curve" smooth="yes"/>
			<point x="220" y="556"/>
			<point x="113" y="469"/>
			<point x="62" y="207" type="curve" smooth="yes"/>
			<point x="48" y="136"/>
			<point x="41" y="68"/>
			<point x="41" y="21" type="curve" smooth="yes"/>
			<point x="41" y="-106"/>
			<point x="99" y="-170"/>
			<point x="199" y="-187" type="curve" smooth="yes"/>
			<point x="265" y="-198"/>
			<point x="276" y="-204"/>
			<point x="276" y="-220" type="curve" smooth="yes"/>
			<point x="276" y="-228"/>
			<point x="273" y="-234"/>
		</contour>
		<contour>
			<point x="304" y="107" type="curve" smooth="yes"/>
			<point x="262" y="107"/>
			<point x="220" y="132"/>
			<point x="199" y="157" type="curve"/>
			<point x="222" y="286"/>
			<point x="262" y="437"/>
			<point x="368" y="437" type="curve" smooth="yes"/>
			<point x="417" y="437"/>
			<point x="444" y="404"/>
			<point x="444" y="336" type="curve" smooth="yes"/>
			<point x="444" y="241"/>
			<point x="407" y="107"/>
		</contour>
	</outline>
</glyph>
<glyph name="rhoStrokeSymbol" format="2">
	<unicode hex="03FC"/>
	<advance width="623"/>
	<outline>
		<contour>
			<point x="299" y="-86" type="line"/>
			<point x="-80" y="-86" type="line"/>
			<point x="-100" y="-183" type="line"/>
			<point x="279" y="-183" type="line"/>
		</contour>
		<component base="rho"/>
	</outline>
	<anchor name="bottom" x="178" y="-240"/>
	<anchor name="top" x="348" y="546"/>
</glyph>
<glyph name="Dzhe-cy" format="2">
	<unicode hex="040F"/>
	<advance width="695"/>
	<outline>
		<contour>
			<point x="169" y="-208" type="line"/>
			<point x="317" y="-208" type="line"/>
			<point x="362" y="0" type="line"/>
			<point x="549" y="0" type="line"/>
			<point x="700" y="714" type="line"/>
			<point x="552" y="714" type="line"/>
			<point x="427" y="126" type="line"/>
			<point x="202" y="126" type="line"/>
			<point x="327" y="714" type="line"/>
			<point x="177" y="714" type="line"/>
			<point x="26" y="0" type="line"/>
			<point x="214" y="0" type="line"/>
		</contour>
	</outline>
	<anchor name="bottom" x="246" y="-208"/>
	<anchor name="top" x="442" y="714"/>
</glyph>
<glyph name="Zhe-cy" format="2">
	<unicode hex="0416"/>
	<advance width="867"/>
	<outline>
		<contour>
			<point x="-61" y="0" type="line"/>
			<point x="106" y="0" type="line"/>
			<point x="377" y="350" type="line"/>
			<point x="303" y="0" type="line"/>
			<point x="446" y="0" type="line"/>
			<point x="520" y="351" type="line"/>
			<point x="654" y="0" type="line"/>
			<point x="808" y="0" type="line"/>
			<point x="664" y="361" type="line"/>
			<point x="948" y="714" type="line"/>
			<point x="788" y="714" type="line"/>
			<point x="526" y="380" type="line"/>
			<point x="597" y="714" type="line"/>
			<point x="454" y="714" type="line"/>
			<point x="383" y="380" type="line"/>
			<point x="253" y="714" type="line"/>
			<point x="105" y="714" type="line"/>
			<point x="241" y="381" type="line"/>
		</contour>
	</outline>
	<anchor name="bottom" x="376" y="0"/>
	<anchor name="bottomright" x="0" y="0"/>
	<anchor name="top" x="525" y="714"/>
</glyph>
<glyph name="Tse-cy" format="2">
	<unicode hex="0426"/>
	<advance width="733"/>
	<outline>
		<contour>
			<point x="458" y="-208" type="line"/>
			<point x="606" y="-208" type="line"/>
			<point x="676" y="120" type="line"/>
			<point x="574" y="120" type="line"/>
			<point x="700" y="714" type="line"/>
			<point x="552" y="714" type="line"/>
			<point x="427" y="126" type="line"/>
			<point x="202" y="126" type="line"/>
			<point x="327" y="714" type="line"/>
			<point x="177" y="714" type="line"/>
			<point x="26" y="0" type="line"/>
			<point x="503" y="0" type="line"/>
		</contour>
	</outline>
	<anchor name="bottom" x="265" y="-208"/>
	<anchor name="top" x="461" y="714"/>
</glyph>
<glyph name="ka-cy" format="2">
	<unicode hex="043A"/>
	<advance width="578"/>
	<outline>
		<contour>
			<point x="18" y="0" type="line"/>
			<point x="165" y="0" type="line"/>
			<point x="222" y="266" type="line"/>
			<point x="347" y="0" type="line"/>
			<point x="512" y="0" type="line"/>
			<point x="377" y="272" type="line"/>
			<point x="611" y="546" type="line"/>
			<point x="443" y="546" type="line"/>
			<point x="228" y="292" type="line"/>
			<point x="282" y="546" type="line"/>
			<point x="135" y="546" type="line"/>
		</contour>
	</outline>
	<anchor name="bottom" x="231" y="0"/>
	<anchor name="top" x="360" y="546"/>
</glyph>
<glyph name="dzhe-cy" format="2">
	<unicode hex="045F"/>
	<advance width="604"/>
	<outline>
		<contour>
			<point x="131" y="-240" type="line"/>
			<point x="268" y="-240" type="line"/>
			<point x="315" y="-20" type="line"/>
			<point x="291" y="-20" type="line"/>
			<point x="168" y="-72" type="line"/>
		</contour>
		<component base="u"/>
	</outline>
	<anchor name="bottom" x="193" y="-240"/>
	<anchor name="top" x="360" y="546"/>
	<anchor name="topright" x="642" y="546"/>
</glyph>
<glyph name="gheupturn-cy" format="2">
	<unicode hex="0491"/>
	<advance width="463"/>
	<outline>
		<contour>
			<point x="18" y="0" type="line"/>
			<point x="165" y="0" type="line"/>
			<point x="255" y="425" type="line"/>
			<point x="469" y="425" type="line"/>
			<point x="526" y="695" type="line"/>
			<point x="390" y="695" type="line"/>
			<point x="359" y="546" type="line"/>
			<point x="134" y="546" type="line"/>
		</contour>
	</outline>
	<anchor name="bottom" x="174" y="0"/>
	<anchor name="top" x="322" y="695"/>
</glyph>
<glyph name="ghestroke-cy" format="2">
	<unicode hex="0493"/>
	<advance width="463"/>
	<outline>
		<contour>
			<point x="18" y="0" type="line"/>
			<point x="165" y="0" type="line"/>
			<point x="208" y="204" type="line"/>
			<point x="336" y="204" type="line"/>
			<point x="360" y="319" type="line"/>
			<point x="232" y="319" type="line"/>
			<point x="255" y="425" type="line"/>
			<point x="469" y="425" type="line"/>
			<point x="495" y="546" type="line"/>
			<point x="134" y="546" type="line"/>
			<point x="86" y="319" type="line"/>
			<point x="18" y="319" type="line"/>
			<point x="-6" y="204" type="line"/>
			<point x="62" y="204" type="line"/>
		</contour>
	</outline>
	<anchor name="bottom" x="174" y="0"/>
	<anchor name="top" x="290" y="546"/>
</glyph>
<glyph name="kaverticalstroke-cy" format="2">
	<unicode hex="049D"/>
	<advance width="588"/>
	<outline>
		<contour>
			<point x="44" y="0" type="line"/>
			<point x="191" y="0" type="line"/>
			<point x="248" y="267" type="line"/>
			<point x="377" y="0" type="line"/>
			<point x="538" y="0" type="line"/>
			<point x="401" y="272" type="line"/>
			<point x="637" y="546" type="line"/>
			<point x="473" y="546" type="line"/>
			<point x="254" y="292" type="line"/>
			<point x="308" y="546" type="line"/>
			<point x="161" y="546" type="line"/>
		</contour>
		<contour>
			<point x="234" y="44" type="line"/>
			<point x="299" y="44" type="line"/>
			<point x="394" y="495" type="line"/>
			<point x="329" y="495" type="line"/>
		</contour>
	</outline>
	<anchor name="bottom" x="236" y="0"/>
	<anchor name="top" x="352" y="546"/>
</glyph>
<glyph name="Kabashkir-cy" format="2">
	<unicode hex="04A0"/>
	<advance width="685"/>
	<outline>
		<contour>
			<point x="116" y="0" type="line"/>
			<point x="265" y="0" type="line"/>
			<point x="339" y="351" type="line"/>
			<point x="472" y="0" type="line"/>
			<point x="637" y="0" type="line"/>
			<point x="493" y="361" type="line"/>
			<point x="777" y="714" type="line"/>
			<point x="609" y="714" type="line"/>
			<point x="345" y="380" type="line"/>
			<point x="416" y="714" type="line"/>
			<point x="108" y="714" type="line"/>
			<point x="82" y="588" type="line"/>
			<point x="240" y="588" type="line"/>
		</contour>
	</outline>
	<anchor name="bottom" x="285" y="0"/>
	<anchor name="top" x="437" y="714"/>
</glyph>
<glyph name="Enghe-cy" format="2">
	<unicode hex="04A4"/>
	<advance width="770"/>
	<outline>
		<contour>
			<point x="26" y="0" type="line"/>
			<point x="175" y="0" type="line"/>
			<point x="240" y="308" type="line"/>
			<point x="470" y="308" type="line"/>
			<point x="405" y="0" type="line"/>
			<point x="554" y="0" type="line"/>
			<point x="678" y="588" type="line"/>
			<point x="830" y="588" type="line"/>
			<point x="856" y="714" type="line"/>
			<point x="556" y="714" type="line"/>
			<point x="497" y="434" type="line"/>
			<point x="267" y="434" type="line"/>
			<point x="326" y="714" type="line"/>
			<point x="177" y="714" type="line"/>
		</contour>
	</outline>
	<anchor name="bottom" x="327" y="0"/>
	<anchor name="top" x="479" y="714"/>
</glyph>
<glyph name="Tedescender-cy" format="2">
	<unicode hex="04AC"/>
	<advance width="531"/>
	<outline>
		<contour>
			<point x="225" y="-208" type="line"/>
			<point x="373" y="-208" type="line"/>
			<point x="443" y="120" type="line"/>
			<point x="304" y="120" type="line"/>
			<point x="403" y="588" type="line"/>
			<point x="575" y="588" type="line"/>
			<point x="602" y="714" type="line"/>
			<point x="109" y="714" type="line"/>
			<point x="82" y="588" type="line"/>
			<point x="254" y="588" type="line"/>
			<point x="130" y="0" type="line"/>
			<point x="270" y="0" type="line"/>
		</contour>
	</outline>
	<anchor name="bottom" x="164" y="-208"/>
	<anchor name="top" x="360" y="714"/>
</glyph>
<glyph name="Tetse-cy" format="2">
	<unicode hex="04B4"/>
	<advance width="837"/>
	<outline>
		<contour>
			<point x="562" y="-208" type="line"/>
			<point x="710" y="-208" type="line"/>
			<point x="782" y="130" type="line"/>
			<point x="680" y="130" type="line"/>
			<point x="804" y="714" type="line"/>
			<point x="656" y="714" type="line"/>
			<point x="531" y="126" type="line"/>
			<point x="306" y="126" type="line"/>
			<point x="403" y="588" type="line"/>
			<point x="561" y="588" type="line"/>
			<point x="587" y="714" type="line"/>
			<point x="109" y="714" type="line"/>
			<point x="82" y="588" type="line"/>
			<point x="254" y="588" type="line"/>
			<point x="130" y="0" type="line"/>
			<point x="607" y="0" type="line"/>
		</contour>
	</outline>
	<anchor name="bottom" x="317" y="-208"/>
	<anchor name="top" x="513" y="714"/>
</glyph>
<glyph name="emtail-cy" format="2">
	<unicode hex="04CE"/>
	<advance width="837"/>
	<outline>
		<contour>
			<point x="526" y="-196" type="line"/>
			<point x="674" y="-196" type="line"/>
			<point x="807" y="109" type="line"/>
			<point x="675" y="109" type="line"/>
			<point x="769" y="547" type="line"/>
			<point x="560" y="547" type="line"/>
			<point x="364" y="165" type="line"/>
			<point x="361" y="165" type="line"/>
			<point x="340" y="547" type="line"/>
			<point x="137" y="547" type="line"/>
			<point x="22" y="0" type="line"/>
			<point x="157" y="0" type="line"/>
			<point x="210" y="264" type="line" smooth="yes"/>
			<point x="219" y="306"/>
			<point x="227" y="348"/>
			<point x="234" y="402" type="curve"/>
			<point x="236" y="402" type="line"/>
			<point x="258" y="0" type="line"/>
			<point x="399" y="0" type="line"/>
			<point x="606" y="402" type="line"/>
			<point x="609" y="402" type="line"/>
			<point x="600" y="372"/>
			<point x="587" y="321"/>
			<point x="576" y="270" type="curve" smooth="yes"/>
			<point x="516" y="0" type="line"/>
			<point x="632" y="0" type="line"/>
		</contour>
	</outline>
	<anchor name="bottom" x="319" y="-196"/>
	<anchor name="top" x="447" y="546"/>
</glyph>
<glyph name="Gedescender-cy" format="2">
	<unicode hex="04F6"/>
	<advance width="503"/>
	<outline>
		<contour>
			<point x="119" y="-208" type="line"/>
			<point x="267" y="-208" type="line"/>
			<point x="337" y="120" type="line"/>
			<point x="198" y="120" type="line"/>
			<point x="298" y="590" type="line"/>
			<point x="548" y="590" type="line"/>
			<point x="574" y="714" type="line"/>
			<point x="177" y="714" type="line"/>
			<point x="26" y="0" type="line"/>
			<point x="164" y="0" type="line"/>
		</contour>
	</outline>
	<anchor name="bottom" x="150" y="-208"/>
	<anchor name="top" x="346" y="714"/>
</glyph>
<glyph name="Hastroke-cy" format="2">
	<unicode hex="04FE"/>
	<advance width="606"/>
	<outline>
		<contour>
			<point x="-57" y="0" type="line"/>
			<point x="110" y="0" type="line"/>
			<point x="303" y="265" type="line"/>
			<point x="387" y="0" type="line"/>
			<point x="549" y="0" type="line"/>
			<point x="438" y="302" type="line"/>
			<point x="560" y="302" type="line"/>
			<point x="586" y="426" type="line"/>
			<point x="466" y="426" type="line"/>
			<point x="684" y="714" type="line"/>
			<point x="516" y="714" type="line"/>
			<point x="339" y="461" type="line"/>
			<point x="264" y="714" type="line"/>
			<point x="108" y="714" type="line"/>
			<point x="207" y="426" type="line"/>
			<point x="85" y="426" type="line"/>
			<point x="59" y="302" type="line"/>
			<point x="171" y="302" type="line"/>
		</contour>
	</outline>
	<anchor name="bottom" x="245" y="0"/>
	<anchor name="top" x="397" y="714"/>
</glyph>
<glyph name="Elhook-cy" format="2">
	<unicode hex="0512"/>
	<advance width="776"/>
	<outline>
		<contour>
			<point x="617" y="0" type="line"/>
			<point x="655" y="148" type="line"/>
			<point x="519" y="148" type="line"/>
			<point x="481" y="0" type="line"/>
		</contour>
		<component base="El-cy"/>
		<component base="cyrillicbighookUC" xOffset="483"/>
	</outline>
	<anchor name="bottom" x="279" y="-242"/>
	<anchor name="top" x="482" y="714"/>
</glyph>
<glyph name="lightcentralizationstrokebelowcomb" format="2">
	<unicode hex="1AB9"/>
	<outline>
		<contour>
			<point x="-680" y="-240" type="line"/>
			<point x="-596" y="-240" type="line"/>
			<point x="-419" y="40" type="line"/>
			<point x="-503" y="40" type="line"/>
		</contour>
	</outline>
	<anchor name="_bottom" x="-528" y="0"/>
	<anchor name="bottom" x="-548" y="-240"/>
</glyph>
<glyph name="delonglegged-cy" format="2">
	<unicode hex="1C81"/>
	<advance width="664"/>
	<outline>
		<contour>
			<point x="626" y="546" type="line"/>
			<point x="240" y="546" type="line"/>
			<point x="194" y="398"/>
			<point x="125" y="249"/>
			<point x="32" y="149" type="curve"/>
			<point x="-14" y="149" type="line"/>
			<point x="-97" y="-240" type="line"/>
			<point x="37" y="-240" type="line"/>
			<point x="97" y="40" type="line"/>
			<point x="464" y="40" type="line"/>
			<point x="404" y="-240" type="line"/>
			<point x="538" y="-240" type="line"/>
			<point x="621" y="149" type="line"/>
			<point x="541" y="149" type="line"/>
		</contour>
		<contour>
			<point x="344" y="434" type="curve"/>
			<point x="453" y="434" type="line"/>
			<point x="392" y="149" type="line"/>
			<point x="191" y="149" type="line"/>
			<point x="259" y="235"/>
			<point x="305" y="329"/>
		</contour>
	</outline>
	<anchor name="bottom" x="223" y="-240"/>
	<anchor name="top" x="390" y="546"/>
</glyph>
<glyph name="tetall-cy" format="2">
	<unicode hex="1C84"/>
	<advance width="480"/>
	<outline>
		<contour>
			<point x="108" y="0" type="line"/>
			<point x="276" y="0" type="line"/>
			<point x="524" y="714" type="line"/>
			<point x="118" y="714" type="line"/>
			<point x="91" y="587" type="line"/>
			<point x="325" y="587" type="line"/>
		</contour>
	</outline>
	<anchor name="bottom" x="182" y="0"/>
	<anchor name="top" x="334" y="714"/>
</glyph>
<glyph name="tethreelegged-cy" format="2">
	<unicode hex="1C85"/>
	<advance width="905"/>
	<outline>
		<contour>
			<point x="18" y="0" type="line"/>
			<point x="165" y="0" type="line"/>
			<point x="260" y="434" type="line"/>
			<point x="419" y="434" type="line"/>
			<point x="325" y="0" type="line"/>
			<point x="472" y="0" type="line"/>
			<point x="566" y="434" type="line"/>
			<point x="725" y="434" type="line"/>
			<point x="631" y="0" type="line"/>
			<point x="778" y="0" type="line"/>
			<point x="896" y="546" type="line"/>
			<point x="134" y="546" type="line"/>
		</contour>
	</outline>
	<anchor name="bottom" x="395" y="0"/>
	<anchor name="top" x="511" y="546"/>
</glyph>
<glyph name="Esmall" format="2">
	<unicode hex="1D07"/>
	<advance width="477"/>
	<outline>
		<contour>
			<point x="26" y="0" type="line"/>
			<point x="368" y="0" type="line"/>
			<point x="393" y="114" type="line"/>
			<point x="194" y="114" type="line"/>
			<point x="219" y="225" type="line"/>
			<point x="405" y="225" type="line"/>
			<point x="430" y="339" type="line"/>
			<point x="246" y="339" type="line"/>
			<point x="267" y="432" type="line"/>
			<point x="465" y="432" type="line"/>
			<point x="488" y="546" type="line"/>
			<point x="145" y="546" type="line"/>
		</contour>
	</outline>
	<anchor name="bottom" x="166" y="0"/>
	<anchor name="top" x="282" y="546"/>
</glyph>
<glyph name="iturned" format="2">
	<unicode hex="1D09"/>
	<advance width="297"/>
	<outline>
		<contour>
			<point x="18" y="0" type="line"/>
			<point x="165" y="0" type="line"/>
			<point x="281" y="546" type="line"/>
			<point x="134" y="546" type="line"/>
		</contour>
		<contour>
			<point x="53" y="-214" type="curve" smooth="yes"/>
			<point x="109" y="-214"/>
			<point x="142" y="-184"/>
			<point x="142" y="-128" type="curve" smooth="yes"/>
			<point x="142" y="-84"/>
			<point x="110" y="-68"/>
			<point x="68" y="-68" type="curve" smooth="yes"/>
			<point x="8" y="-68"/>
			<point x="-20" y="-103"/>
			<point x="-20" y="-155" type="curve" smooth="yes"/>
			<point x="-20" y="-199"/>
			<point x="14" y="-214"/>
		</contour>
	</outline>
	<anchor name="bottom" x="46" y="-214"/>
	<anchor name="top" x="207" y="546"/>
</glyph>
<glyph name="thstrikethrough" format="2">
	<unicode hex="1D7A"/>
	<advance width="975"/>
	<outline>
		<contour>
			<point x="17" y="-75" type="line"/>
			<point x="131" y="-75" type="line"/>
			<point x="936" y="760" type="line"/>
			<point x="821" y="760" type="line"/>
		</contour>
		<component base="t"/>
		<component base="h" xOffset="371"/>
	</outline>
	<anchor name="bottom_1" x="190" y="0"/>
	<anchor name="bottom_2" x="624" y="0"/>
	<anchor name="center_1" x="203" y="273"/>
	<anchor name="center_2" x="731" y="273"/>
	<anchor name="top_1" x="288" y="662"/>
	<anchor name="top_2" x="625" y="760"/>
	<anchor name="topright_1" x="415" y="860"/>
	<anchor name="topright_2" x="1008" y="760"/>
</glyph>
<glyph name="pstroke" format="2">
	<unicode hex="1D7D"/>
	<advance width="595"/>
	<outline>
		<contour>
			<point x="-8" y="230" type="line"/>
			<point x="579" y="230" type="line"/>
			<point x="600" y="327" type="line"/>
			<point x="13" y="327" type="line"/>
		</contour>
		<component base="p"/>
	</outline>
	<anchor name="bottom" x="189" y="-240"/>
	<anchor name="top" x="356" y="546"/>
	<anchor name="topright" x="633" y="546"/>
</glyph>
<glyph name="gravemacroncomb" format="2">
	<unicode hex="1DC5"/>
	<outline>
		<contour>
			<point x="66" y="596" type="line"/>
			<point x="228" y="596" type="line"/>
			<point x="228" y="687" type="line"/>
			<point x="86" y="687" type="line"/>
			<point x="-34" y="752" type="line"/>
			<point x="-76" y="673" type="line"/>
		</contour>
	</outline>
	<anchor name="_top" x="49" y="546"/>
	<anchor name="top" x="78" y="752"/>
</glyph>
<glyph name="acutemacroncomb" format="2">
	<unicode hex="1DC7"/>
	<outline>
		<contour>
			<point x="-34" y="588" type="line"/>
			<point x="86" y="653" type="line"/>
			<point x="228" y="653" type="line"/>
			<point x="228" y="744" type="line"/>
			<point x="66" y="744" type="line"/>
			<point x="-76" y="667" type="line"/>
		</contour>
	</outline>
	<anchor name="_top" x="50" y="546"/>
	<anchor name="top" x="78" y="744"/>
</glyph>
<glyph name="arrowheadleftabovecomb" format="2">
	<unicode hex="1DFE"/>
	<outline>
		<contour>
			<point x="149" y="590" type="curve"/>
			<point x="160" y="590" type="line"/>
			<point x="160" y="640" type="line"/>
			<point x="133" y="657"/>
			<point x="105" y="672"/>
			<point x="68" y="690" type="curve"/>
			<point x="105" y="708"/>
			<point x="136" y="723"/>
			<point x="160" y="739" type="curve"/>
			<point x="160" y="790" type="line"/>
			<point x="149" y="790" type="line"/>
			<point x="110" y="769"/>
			<point x="43" y="737"/>
			<point x="-4" y="725" type="curve"/>
			<point x="-4" y="657" type="line"/>
			<point x="43" y="643"/>
			<point x="110" y="610"/>
		</contour>
	</outline>
	<anchor name="_top" x="47" y="546"/>
	<anchor name="top" x="80" y="790"/>
</glyph>
<glyph name="longsdiagonalstroke" format="2">
	<unicode hex="1E9C"/>
	<advance width="358"/>
	<outline>
		<contour>
			<point x="29" y="220" type="line"/>
			<point x="389" y="406" type="line"/>
			<point x="345" y="494" type="line"/>
			<point x="-15" y="308" type="line"/>
		</contour>
		<component base="longs"/>
	</outline>
	<anchor name="bottom" x="70" y="-240"/>
	<anchor name="top" x="284" y="765"/>
</glyph>
<glyph name="prosgegrammeni" format="2">
	<unicode hex="1FBE"/>
	<advance width="377"/>
	<outline>
		<contour>
			<point x="203" y="-10" type="curve" smooth="yes"/>
			<point x="237" y="-10"/>
			<point x="278" y="-5"/>
			<point x="304" y="2" type="curve"/>
			<point x="329" y="119" type="line"/>
			<point x="303" y="113"/>
			<point x="284" y="110"/>
			<point x="257" y="110" type="curve" smooth="yes"/>
			<point x="217" y="110"/>
			<point x="188" y="127"/>
			<point x="202" y="193" type="curve" smooth="yes"/>
			<point x="235" y="346" type="line"/>
			<point x="86" y="346" type="line"/>
			<point x="49" y="171" type="line" smooth="yes"/>
			<point x="27" y="71"/>
			<point x="63" y="-10"/>
		</contour>
	</outline>
</glyph>
<glyph name="dialytikavaria" format="2">
	<unicode hex="1FED"/>
	<advance width="754"/>
	<outline>
		<contour>
			<point x="454" y="606" type="line"/>
			<point x="554" y="606" type="line"/>
			<point x="554" y="619" type="line"/>
			<point x="517" y="776" type="line"/>
			<point x="350" y="776" type="line"/>
			<point x="350" y="766" type="line"/>
		</contour>
		<contour>
			<point x="274" y="621" type="curve" smooth="yes"/>
			<point x="313" y="621"/>
			<point x="343" y="642"/>
			<point x="343" y="686" type="curve"/>
			<point x="343" y="732"/>
			<point x="313" y="752"/>
			<point x="274" y="752" type="curve" smooth="yes"/>
			<point x="237" y="752"/>
			<point x="205" y="732"/>
			<point x="205" y="686" type="curve" smooth="yes"/>
			<point x="205" y="642"/>
			<point x="237" y="621"/>
		</contour>
		<contour>
			<point x="655" y="621" type="curve" smooth="yes"/>
			<point x="693" y="621"/>
			<point x="723" y="642"/>
			<point x="723" y="686" type="curve"/>
			<point x="723" y="732"/>
			<point x="693" y="752"/>
			<point x="655" y="752" type="curve" smooth="yes"/>
			<point x="618" y="752"/>
			<point x="586" y="732"/>
			<point x="586" y="686" type="curve" smooth="yes"/>
			<point x="586" y="642"/>
			<point x="618" y="621"/>
		</contour>
	</outline>
	<anchor name="_top" x="522" y="546"/>
</glyph>
<glyph name="varia" format="2">
	<unicode hex="1FEF"/>
	<advance width="330"/>
	<outline>
		<contour>
			<point x="261" y="606" type="line"/>
			<point x="361" y="606" type="line"/>
			<point x="361" y="619" type="line"/>
			<point x="314" y="776" type="line"/>
			<point x="147" y="776" type="line"/>
			<point x="147" y="766" type="line"/>
		</contour>
	</outline>
	<anchor name="_top" x="318" y="546"/>
</glyph>
<glyph name="dasia" format="2">
	<unicode hex="1FFE"/>
	<advance width="272"/>
	<outline>
		<contour>
			<point x="230" y="595" type="curve"/>
			<point x="283" y="625" type="line"/>
			<point x="268" y="635"/>
			<point x="259" y="650"/>
			<point x="259" y="665" type="curve" smooth="yes"/>
			<point x="259" y="683"/>
			<point x="269" y="697"/>
			<point x="296" y="697" type="curve" smooth="yes"/>
			<point x="312" y="697"/>
			<point x="320" y="693"/>
			<point x="326" y="691" type="curve"/>
			<point x="326" y="770" type="line"/>
			<point x="312" y="775"/>
			<point x="289" y="781"/>
			<point x="258" y="781" type="curve" smooth="yes"/>
			<point x="196" y="781"/>
			<point x="153" y="756"/>
			<point x="153" y="696" type="curve" smooth="yes"/>
			<point x="153" y="649"/>
			<point x="187" y="619"/>
		</contour>
	</outline>
	<anchor name="_top" x="211" y="546"/>
</glyph>
<glyph name="triangularbullet" format="2">
	<unicode hex="2023"/>
	<advance width="352"/>
	<outline>
		<contour>
			<point x="43" y="185" type="line"/>
			<point x="357" y="349" type="line"/>
			<point x="123" y="560" type="line"/>
		</contour>
	</outline>
</glyph>
<glyph name="guilsinglright" format="2">
	<unicode hex="203A"/>
	<advance width="324"/>
	<outline>
		<contour>
			<point x="93" y="44" type="line"/>
			<point x="289" y="270" type="line"/>
			<point x="289" y="279" type="line"/>
			<point x="190" y="504" type="line"/>
			<point x="70" y="454" type="line"/>
			<point x="136" y="283" type="line"/>
			<point x="0" y="120" type="line"/>
		</contour>
	</outline>
</glyph>
<glyph name="fraction" format="2">
	<unicode hex="2044"/>
	<advance width="125"/>
	<outline>
		<contour>
			<point x="-260" y="0" type="line"/>
			<point x="-143" y="0" type="line"/>
			<point x="386" y="714" type="line"/>
			<point x="271" y="714" type="line"/>
		</contour>
	</outline>
</glyph>
<glyph name="sevensuperior" format="2">
	<unicode hex="2077"/>
	<advance width="379"/>
	<outline>
		<contour>
			<point x="98" y="415" type="line"/>
			<point x="224" y="415" type="line"/>
			<point x="451" y="770" type="line"/>
			<point x="466" y="843" type="line"/>
			<point x="145" y="843" type="line"/>
			<point x="126" y="753" type="line"/>
			<point x="324" y="753" type="line"/>
		</contour>
	</outline>
</glyph>
<glyph name="plussuperior" format="2">
	<unicode hex="207A"/>
	<advance width="376"/>
	<outline>
		<contour>
			<point x="226" y="458" type="line"/>
			<point x="293" y="458" type="line"/>
			<point x="293" y="569" type="line"/>
			<point x="405" y="569" type="line"/>
			<point x="405" y="636" type="line"/>
			<point x="293" y="636" type="line"/>
			<point x="293" y="749" type="line"/>
			<point x="226" y="749" type="line"/>
			<point x="226" y="636" type="line"/>
			<point x="114" y="636" type="line"/>
			<point x="114" y="569" type="line"/>
			<point x="226" y="569" type="line"/>
		</contour>
	</outline>
</glyph>
<glyph name="minussuperior" format="2">
	<unicode hex="207B"/>
	<advance width="376"/>
	<outline>
		<contour>
			<point x="110" y="561" type="line"/>
			<point x="401" y="561" type="line"/>
			<point x="401" y="628" type="line"/>
			<point x="110" y="628" type="line"/>
		</contour>
	</outline>
</glyph>
<glyph name="equalsuperior" format="2">
	<unicode hex="207C"/>
	<advance width="403"/>
	<outline>
		<contour>
			<point x="124" y="626" type="line"/>
			<point x="415" y="626" type="line"/>
			<point x="415" y="692" type="line"/>
			<point x="124" y="692" type="line"/>
		</contour>
		<contour>
			<point x="124" y="507" type="line"/>
			<point x="415" y="507" type="line"/>
			<point x="415" y="574" type="line"/>
			<point x="124" y="574" type="line"/>
		</contour>
	</outline>
</glyph>
<glyph name="parenrightsuperior" format="2">
	<unicode hex="207E"/>
	<advance width="223"/>
	<outline>
		<contour>
			<point x="9" y="341" type="curve"/>
			<point x="90" y="341" type="line"/>
			<point x="190" y="444"/>
			<point x="244" y="558"/>
			<point x="244" y="702" type="curve"/>
			<point x="244" y="769"/>
			<point x="229" y="833"/>
			<point x="198" y="887" type="curve"/>
			<point x="127" y="887" type="line"/>
			<point x="149" y="832"/>
			<point x="162" y="769"/>
			<point x="162" y="706" type="curve"/>
			<point x="162" y="556"/>
			<point x="98" y="438"/>
		</contour>
	</outline>
</glyph>
<glyph name="mill" format="2">
	<unicode hex="20A5"/>
	<advance width="905"/>
	<outline>
		<contour>
			<point x="133" y="-110" type="line"/>
			<point x="233" y="-110" type="line"/>
			<point x="745" y="666" type="line"/>
			<point x="645" y="666" type="line"/>
		</contour>
		<component base="m"/>
	</outline>
	<anchor name="bottom" x="403" y="0"/>
	<anchor name="top" x="528" y="546"/>
	<anchor name="topright" x="943" y="546"/>
</glyph>
<glyph name="versicle" format="2">
	<unicode hex="2123"/>
	<advance width="590"/>
	<outline>
		<contour>
			<point x="96" y="-146" type="line"/>
			<point x="159" y="-146" type="line"/>
			<point x="436" y="791" type="line"/>
			<point x="163" y="877" type="line"/>
			<point x="142" y="816" type="line"/>
			<point x="359" y="752" type="line"/>
		</contour>
		<component base="V"/>
	</outline>
	<anchor name="bottom" x="234" y="0"/>
	<anchor name="top" x="383" y="714"/>
	<anchor name="topright" x="664" y="714"/>
</glyph>
<glyph name="tdiagonalstroke" format="2">
	<unicode hex="2C66"/>
	<advance width="410"/>
	<outline>
		<contour>
			<point x="-36" y="-208" type="line"/>
			<point x="50" y="-208" type="line"/>
			<point x="545" y="760" type="line"/>
			<point x="459" y="760" type="line"/>
		</contour>
		<component base="t"/>
	</outline>
	<anchor name="bottom" x="136" y="-208"/>
	<anchor name="top" x="309" y="760"/>
	<anchor name="center" x="203" y="273"/>
	<anchor name="topright" x="415" y="860"/>
</glyph>
<glyph name="zdescender" format="2">
	<unicode hex="2C6C"/>
	<advance width="455"/>
	<outline>
		<contour>
			<point x="190" y="-196" type="line"/>
			<point x="323" y="-196" type="line"/>
			<point x="389" y="114" type="line"/>
			<point x="175" y="114" type="line"/>
			<point x="451" y="448" type="line"/>
			<point x="472" y="546" type="line"/>
			<point x="106" y="546" type="line"/>
			<point x="81" y="432" type="line"/>
			<point x="275" y="432" type="line"/>
			<point x="-6" y="88" type="line"/>
			<point x="-23" y="0" type="line"/>
			<point x="232" y="0" type="line"/>
		</contour>
	</outline>
	<anchor name="bottom" x="128" y="-196"/>
	<anchor name="top" x="286" y="546"/>
</glyph>
<glyph name="Halfh" format="2">
	<unicode hex="2C75"/>
	<advance width="528"/>
	<outline>
		<contour>
			<point x="26" y="0" type="line"/>
			<point x="175" y="0" type="line"/>
			<point x="240" y="308" type="line"/>
			<point x="490" y="308" type="line"/>
			<point x="517" y="434" type="line"/>
			<point x="267" y="434" type="line"/>
			<point x="326" y="714" type="line"/>
			<point x="177" y="714" type="line"/>
		</contour>
	</outline>
	<anchor name="bottom" x="206" y="0"/>
	<anchor name="top" x="358" y="714"/>
</glyph>
<glyph name="leftraisedomissionbracket" format="2">
	<unicode hex="2E0C"/>
	<advance width="500"/>
	<outline>
		<contour>
			<point x="392" y="334" type="line"/>
			<point x="441" y="382" type="line"/>
			<point x="108" y="715" type="line"/>
			<point x="59" y="667" type="line"/>
		</contour>
	</outline>
</glyph>
<glyph name="leftverticalbarwithquill" format="2">
	<unicode hex="2E20"/>
	<advance width="551"/>
	<outline>
		<contour>
			<point x="157" y="-240" type="line"/>
			<point x="240" y="-240" type="line"/>
			<point x="240" y="222" type="line"/>
			<point x="382" y="222" type="line"/>
			<point x="382" y="297" type="line"/>
			<point x="240" y="297" type="line"/>
			<point x="240" y="760" type="line"/>
			<point x="157" y="760" type="line"/>
		</contour>
	</outline>
</glyph>
<glyph name="rightverticalbarwithquill" format="2">
	<unicode hex="2E21"/>
	<advance width="551"/>
	<outline>
		<contour>
			<point x="310" y="-240" type="line"/>
			<point x="394" y="-240" type="line"/>
			<point x="394" y="760" type="line"/>
			<point x="310" y="760" type="line"/>
			<point x="310" y="297" type="line"/>
			<point x="169" y="297" type="line"/>
			<point x="169" y="222" type="line"/>
			<point x="310" y="222" type="line"/>
		</contour>
	</outline>
</glyph>
<glyph name="toprightHalfBracket" format="2">
	<unicode hex="2E23"/>
	<advance width="340"/>
	<outline>
		<contour>
			<point x="166" y="268" type="line"/>
			<point x="260" y="268" type="line"/>
			<point x="260" y="714" type="line"/>
			<point x="25" y="714" type="line"/>
			<point x="25" y="630" type="line"/>
			<point x="166" y="630" type="line"/>
		</contour>
	</outline>
</glyph>
<glyph name="paragraphus" format="2">
	<unicode hex="2E4D"/>
	<advance width="503"/>
	<outline>
		<contour>
			<point x="216" y="284" type="line"/>
			<point x="533" y="601" type="line"/>
			<point x="484" y="649" type="line"/>
			<point x="167" y="332" type="line"/>
		</contour>
		<component base="Ge-cy"/>
	</outline>
	<anchor name="bottom" x="194" y="0"/>
	<anchor name="top" x="382" y="714"/>
</glyph>
<glyph name="yureversed-cy" format="2">
	<unicode hex="A655"/>
	<advance width="836"/>
	<outline>
		<contour>
			<point x="458" y="336" type="line"/>
			<point x="434" y="225" type="line"/>
			<point x="603" y="225" type="line"/>
			<point x="556" y="0" type="line"/>
			<point x="703" y="0" type="line"/>
			<point x="819" y="546" type="line"/>
			<point x="672" y="546" type="line"/>
			<point x="628" y="336" type="line"/>
		</contour>
		<component base="o"/>
	</outline>
	<anchor name="bottom" x="251" y="0"/>
	<anchor name="center" x="351" y="273"/>
	<anchor name="top" x="343" y="546"/>
	<anchor name="topright" x="623" y="546"/>
</glyph>
<glyph name="elsoft-cy" format="2">
	<unicode hex="A665"/>
	<advance width="780"/>
	<outline>
		<contour>
			<point x="335" y="0" type="line"/>
			<point x="482" y="0" type="line"/>
			<point x="572" y="425" type="line"/>
			<point x="786" y="425" type="line"/>
			<point x="812" y="546" type="line"/>
			<point x="451" y="546" type="line"/>
		</contour>
		<component base="el-cy"/>
	</outline>
	<anchor name="bottom" x="250" y="0"/>
	<anchor name="top" x="366" y="546"/>
</glyph>
<glyph name="emsoft-cy" format="2">
	<unicode hex="A667"/>
	<advance width="937"/>
	<outline>
		<contour>
			<point x="729" y="425" type="line"/>
			<point x="943" y="425" type="line"/>
			<point x="969" y="546" type="line"/>
			<point x="608" y="546" type="line"/>
		</contour>
		<component base="em-cy"/>
	</outline>
	<anchor name="bottom" x="328" y="0"/>
	<anchor name="top" x="444" y="546"/>
</glyph>
<glyph name="Zhwe-cy" format="2">
	<unicode hex="A684"/>
	<advance width="1216"/>
	<outline>
		<contour>
			<point x="200" y="312" type="line"/>
			<point x="786" y="312" type="line"/>
			<point x="786" y="430" type="line"/>
			<point x="200" y="430" type="line"/>
		</contour>
		<component base="Ze-cy"/>
		<component base="Ka-cy" xOffset="621"/>
	</outline>
	<anchor name="bottom_1" x="240" y="0"/>
	<anchor name="bottom_2" x="861" y="0"/>
	<anchor name="top_1" x="392" y="714"/>
	<anchor name="top_2" x="1032" y="714"/>
</glyph>
<glyph name="raiseduparrowmod" format="2">
	<unicode hex="A71B"/>
	<advance width="486"/>
	<outline>
		<contour>
			<point x="285" y="584" type="line"/>
			<point x="361" y="584" type="line"/>
			<point x="361" y="714" type="line"/>
			<point x="496" y="714" type="line"/>
			<point x="323" y="904" type="line"/>
			<point x="150" y="714" type="line"/>
			<point x="285" y="714" type="line"/>
		</contour>
	</outline>
</glyph>
<glyph name="avhorizontalbar" format="2">
	<unicode hex="A73B"/>
	<advance width="872"/>
	<outline>
		<contour>
			<point x="486" y="325" type="line"/>
			<point x="673" y="325" type="line"/>
			<point x="694" y="422" type="line"/>
			<point x="507" y="422" type="line"/>
		</contour>
		<component base="av" xOffset="-4"/>
	</outline>
	<anchor name="bottom" x="347" y="4"/>
	<anchor name="top" x="463" y="553"/>
</glyph>
<glyph name="Kstroke" format="2">
	<unicode hex="A740"/>
	<advance width="613"/>
	<outline>
		<contour>
			<point x="83" y="523" type="line"/>
			<point x="347" y="523" type="line"/>
			<point x="374" y="649" type="line"/>
			<point x="110" y="649" type="line"/>
		</contour>
		<component base="K"/>
	</outline>
	<anchor name="bottom" x="272" y="0"/>
	<anchor name="top" x="422" y="714"/>
	<anchor name="topright" x="687" y="714"/>
</glyph>
<glyph name="lhighstroke" format="2">
	<unicode hex="A749"/>
	<advance width="297"/>
	<outline>
		<contour>
			<point x="82" y="583" type="line"/>
			<point x="348" y="583" type="line"/>
			<point x="369" y="681" type="line"/>
			<point x="103" y="681" type="line"/>
		</contour>
		<component base="l"/>
	</outline>
	<anchor name="bottom" x="91" y="0"/>
	<anchor name="center" x="207" y="273"/>
	<anchor name="top" x="254" y="760"/>
	<anchor name="topright" x="343" y="760"/>
</glyph>
<glyph name="Olongstroke" format="2">
	<unicode hex="A74A"/>
	<advance width="716"/>
	<outline>
		<contour>
			<point x="23" y="308" type="line"/>
			<point x="738" y="308" type="line"/>
			<point x="762" y="422" type="line"/>
			<point x="47" y="422" type="line"/>
		</contour>
		<component base="O" xOffset="10"/>
	</outline>
	<anchor name="bottom" x="332" y="0"/>
	<anchor name="center" x="415" y="357"/>
	<anchor name="top" x="469" y="714"/>
	<anchor name="topright" x="814" y="714"/>
</glyph>
<glyph name="olongstroke" format="2">
	<unicode hex="A74B"/>
	<advance width="646"/>
	<outline>
		<contour>
			<point x="1" y="224" type="line"/>
			<point x="624" y="224" type="line"/>
			<point x="647" y="330" type="line"/>
			<point x="24" y="330" type="line"/>
		</contour>
		<component base="o" xOffset="30"/>
	</outline>
	<anchor name="bottom" x="281" y="0"/>
	<anchor name="center" x="381" y="273"/>
	<anchor name="top" x="373" y="546"/>
	<anchor name="topright" x="653" y="546"/>
</glyph>
<glyph name="pstrokethroughdescender" format="2">
	<unicode hex="A751"/>
	<advance width="595"/>
	<outline>
		<contour>
			<point x="-92" y="-162" type="line"/>
			<point x="257" y="-162" type="line"/>
			<point x="278" y="-64" type="line"/>
			<point x="-71" y="-64" type="line"/>
		</contour>
		<component base="p"/>
	</outline>
	<anchor name="bottom" x="189" y="-240"/>
	<anchor name="top" x="356" y="546"/>
	<anchor name="topright" x="633" y="546"/>
</glyph>
<glyph name="thornstroke" format="2">
	<unicode hex="A765"/>
	<advance width="595"/>
	<outline>
		<contour>
			<point x="48" y="448" type="line"/>
			<point x="461" y="643" type="line"/>
			<point x="482" y="742" type="line"/>
			<point x="68" y="546" type="line"/>
		</contour>
		<component base="thorn"/>
	</outline>
	<anchor name="bottom" x="189" y="-240"/>
	<anchor name="top" x="401" y="760"/>
</glyph>
<glyph name="num" format="2">
	<unicode hex="A774"/>
	<advance width="767"/>
	<outline>
		<contour>
			<point x="402" y="-157" type="line"/>
			<point x="493" y="-157" type="line"/>
			<point x="714" y="270" type="line"/>
			<point x="623" y="270" type="line"/>
		</contour>
		<contour>
			<point x="434" y="0" type="line"/>
			<point x="712" y="0" type="line"/>
			<point x="737" y="115" type="line"/>
			<point x="459" y="115" type="line"/>
		</contour>
		<component base="n"/>
	</outline>
	<anchor name="bottom" x="250" y="0"/>
	<anchor name="top" x="362" y="546"/>
	<anchor name="topright" x="642" y="546"/>
</glyph>
<glyph name="lturned" format="2">
	<unicode hex="A781"/>
	<advance width="297"/>
	<outline>
		<contour>
			<point x="-33" y="-240" type="line"/>
			<point x="114" y="-240" type="line"/>
			<point x="281" y="546" type="line"/>
			<point x="134" y="546" type="line"/>
		</contour>
	</outline>
	<anchor name="bottom" x="40" y="-240"/>
	<anchor name="top" x="207.028" y="546"/>
	<anchor name="topright" x="281" y="546"/>
</glyph>
<glyph name="shortequalmod" format="2">
	<unicode hex="A78A"/>
	<advance width="455"/>
	<outline>
		<contour>
			<point x="63" y="360" type="line"/>
			<point x="427" y="360" type="line"/>
			<point x="450" y="466" type="line"/>
			<point x="86" y="466" type="line"/>
		</contour>
		<contour>
			<point x="23" y="170" type="line"/>
			<point x="387" y="170" type="line"/>
			<point x="409" y="277" type="line"/>
			<point x="45" y="277" type="line"/>
		</contour>
	</outline>
</glyph>
<glyph name="Ndescender" format="2">
	<unicode hex="A790"/>
	<advance width="755"/>
	<outline>
		<contour>
			<point x="518" y="-208" type="line"/>
			<point x="666" y="-208" type="line"/>
			<point x="736" y="120" type="line"/>
			<point x="634" y="120" type="line"/>
			<point x="563" y="0" type="line"/>
		</contour>
		<component base="N"/>
	</outline>
	<anchor name="bottom" x="311" y="0"/>
	<anchor name="top" x="477" y="714"/>
	<anchor name="topright" x="829" y="714"/>
</glyph>
<glyph name="ndescender" format="2">
	<unicode hex="A791"/>
	<advance width="625"/>
	<outline>
		<contour>
			<point x="381" y="-196" type="line"/>
			<point x="517" y="-196" type="line"/>
			<point x="584" y="122" type="line"/>
			<point x="502" y="122" type="line"/>
			<point x="423" y="0" type="line"/>
		</contour>
		<component base="n"/>
	</outline>
	<anchor name="bottom" x="250" y="0"/>
	<anchor name="top" x="362" y="546"/>
	<anchor name="topright" x="642" y="546"/>
</glyph>
<glyph name="Cbar" format="2">
	<unicode hex="A792"/>
	<advance width="612"/>
	<outline>
		<contour>
			<point x="19" y="301" type="line"/>
			<point x="361" y="301" type="line"/>
			<point x="388" y="427" type="line"/>
			<point x="46" y="427" type="line"/>
		</contour>
		<component base="C" xOffset="13"/>
	</outline>
	<anchor name="bottom" x="333" y="0"/>
	<anchor name="top" x="449" y="714"/>
	<anchor name="topright" x="699" y="714"/>
</glyph>
<glyph name="fstroke" format="2">
	<unicode hex="A799"/>
	<advance width="373"/>
	<outline>
		<contour>
			<point x="13" y="242" type="line"/>
			<point x="346" y="243" type="line"/>
			<point x="367" y="341" type="line"/>
			<point x="34" y="340" type="line"/>
		</contour>
		<component base="f"/>
	</outline>
	<anchor name="bottom" x="-22" y="-240"/>
	<anchor name="top" x="364" y="765"/>
	<anchor name="topright" x="498" y="765"/>
</glyph>
<glyph name="Nobliquestroke" format="2">
	<unicode hex="A7A4"/>
	<advance width="755"/>
	<outline>
		<contour>
			<point x="5" y="259" type="line"/>
			<point x="767" y="370" type="line"/>
			<point x="786" y="460" type="line"/>
			<point x="24" y="348" type="line"/>
		</contour>
		<component base="N"/>
	</outline>
	<anchor name="bottom" x="311" y="0"/>
	<anchor name="top" x="477" y="714"/>
	<anchor name="topright" x="829" y="714"/>
</glyph>
<glyph name="robliquestroke" format="2">
	<unicode hex="A7A7"/>
	<advance width="421"/>
	<outline>
		<contour>
			<point x="-19" y="182" type="line"/>
			<point x="390" y="242" type="line"/>
			<point x="409" y="332" type="line"/>
			<point x="0" y="272" type="line"/>
		</contour>
		<component base="r"/>
	</outline>
	<anchor name="bottom" x="96" y="0"/>
	<anchor name="top" x="293" y="546"/>
	<anchor name="topright" x="459" y="546"/>
</glyph>
<glyph name="Sobliquestroke" format="2">
	<unicode hex="A7A8"/>
	<advance width="530"/>
	<outline>
		<contour>
			<point x="24" y="301" type="line"/>
			<point x="521" y="375" type="line"/>
			<point x="540" y="465" type="line"/>
			<point x="43" y="391" type="line"/>
		</contour>
		<component base="S"/>
	</outline>
	<anchor name="bottom" x="201" y="0"/>
	<anchor name="top" x="352" y="714"/>
	<anchor name="topright" x="604" y="714"/>
</glyph>
<glyph name="sobliquestroke" format="2">
	<unicode hex="A7A9"/>
	<advance width="473"/>
	<outline>
		<contour>
			<point x="-7" y="200" type="line"/>
			<point x="444" y="267" type="line"/>
			<point x="463" y="357" type="line"/>
			<point x="12" y="290" type="line"/>
		</contour>
		<component base="s"/>
	</outline>
	<anchor name="bottom" x="179" y="0"/>
	<anchor name="top" x="282" y="546"/>
	<anchor name="topright" x="511" y="546"/>
</glyph>
<glyph name="Qsmall" format="2">
	<unicode hex="A7AF"/>
	<advance width="623"/>
	<outline>
		<contour>
			<point x="377" y="80" type="line"/>
			<point x="243" y="54" type="line"/>
			<point x="361" y="-138" type="line"/>
			<point x="522" y="-138" type="line"/>
		</contour>
		<component base="o.sc"/>
	</outline>
	<anchor name="bottom" x="250" y="0"/>
	<anchor name="center" x="374" y="291"/>
	<anchor name="top" x="374" y="582"/>
	<anchor name="topright" x="665" y="582"/>
</glyph>
<glyph name="Ustroke" format="2">
	<unicode hex="A7B8"/>
	<advance width="691"/>
	<outline>
		<contour>
			<point x="34" y="-50" type="line"/>
			<point x="798" y="695" type="line"/>
			<point x="743" y="752" type="line"/>
			<point x="-22" y="9" type="line"/>
		</contour>
		<component base="U"/>
	</outline>
	<anchor name="bottom" x="291" y="0"/>
	<anchor name="top" x="436" y="714"/>
	<anchor name="topright" x="765" y="714"/>
</glyph>
<glyph name="ustroke" format="2">
	<unicode hex="A7B9"/>
	<advance width="604"/>
	<outline>
		<contour>
			<point x="45" y="-49" type="line"/>
			<point x="675" y="506" type="line"/>
			<point x="621" y="571" type="line"/>
			<point x="-11" y="14" type="line"/>
		</contour>
		<component base="u"/>
	</outline>
	<anchor name="bottom" x="236" y="0"/>
	<anchor name="top" x="360" y="546"/>
	<anchor name="topright" x="642" y="546"/>
</glyph>
<glyph name="Dmiddlestroke" format="2">
	<unicode hex="A7C7"/>
	<advance width="677"/>
	<outline>
		<contour>
			<point x="163" y="320" type="line"/>
			<point x="558" y="320" type="line"/>
			<point x="576" y="405" type="line"/>
			<point x="181" y="405" type="line"/>
		</contour>
		<component base="D"/>
	</outline>
	<anchor name="bottom" x="283" y="0"/>
	<anchor name="center" x="379" y="357"/>
	<anchor name="top" x="429" y="714"/>
	<anchor name="topright" x="751" y="714"/>
</glyph>
<glyph name="dmiddlestroke" format="2">
	<unicode hex="A7C8"/>
	<advance width="594"/>
	<outline>
		<contour>
			<point x="115" y="233" type="line"/>
			<point x="451" y="233" type="line"/>
			<point x="469" y="318" type="line"/>
			<point x="133" y="318" type="line"/>
		</contour>
		<component base="d"/>
	</outline>
	<anchor name="bottom" x="241" y="0"/>
	<anchor name="center" x="355" y="273"/>
	<anchor name="top" x="400" y="760"/>
	<anchor name="topright" x="673" y="760"/>
</glyph>
<glyph name="Smiddlestroke" format="2">
	<unicode hex="A7C9"/>
	<advance width="530"/>
	<outline>
		<contour>
			<point x="25" y="325" type="line"/>
			<point x="536" y="325" type="line"/>
			<point x="554" y="410" type="line"/>
			<point x="43" y="410" type="line"/>
		</contour>
		<component base="S"/>
	</outline>
	<anchor name="bottom" x="201" y="0"/>
	<anchor name="top" x="352" y="714"/>
	<anchor name="topright" x="604" y="714"/>
</glyph>
<glyph name="smiddlestroke" format="2">
	<unicode hex="A7CA"/>
	<advance width="473"/>
	<outline>
		<contour>
			<point x="5" y="225" type="line"/>
			<point x="458" y="225" type="line"/>
			<point x="476" y="310" type="line"/>
			<point x="23" y="310" type="line"/>
		</contour>
		<component base="s"/>
	</outline>
	<anchor name="bottom" x="179" y="0"/>
	<anchor name="top" x="282" y="546"/>
	<anchor name="topright" x="511" y="546"/>
</glyph>
<glyph name="Halfhturned" format="2">
	<unicode hex="A7F5"/>
	<advance width="528"/>
	<outline>
		<contour>
			<point x="238" y="0" type="line"/>
			<point x="387" y="0" type="line"/>
			<point x="538" y="714" type="line"/>
			<point x="389" y="714" type="line"/>
		</contour>
		<contour>
			<point x="53" y="308" type="line"/>
			<point x="339" y="308" type="line"/>
			<point x="366" y="434" type="line"/>
			<point x="80" y="434" type="line"/>
		</contour>
	</outline>
	<anchor name="bottom" x="206" y="0"/>
	<anchor name="top" x="358" y="714"/>
</glyph>
<glyph name="halfhturned" format="2">
	<unicode hex="A7F6"/>
	<advance width="443"/>
	<outline>
		<contour>
			<point x="161" y="0" type="line"/>
			<point x="309" y="0" type="line"/>
			<point x="426" y="546" type="line"/>
			<point x="278" y="546" type="line"/>
		</contour>
		<contour>
			<point x="20" y="225" type="line"/>
			<point x="244" y="225" type="line"/>
			<point x="268" y="336" type="line"/>
			<point x="43" y="336" type="line"/>
		</contour>
	</outline>
	<anchor name="bottom" x="163" y="0"/>
	<anchor name="top" x="279" y="546"/>
</glyph>
<glyph name="Iepigraphicsideways" format="2">
	<unicode hex="A7F7"/>
	<advance width="749"/>
	<outline>
		<contour>
			<point x="45" y="203" type="line"/>
			<point x="128" y="203" type="line"/>
			<point x="186" y="290" type="line"/>
			<point x="570" y="290" type="line"/>
			<point x="591" y="203" type="line"/>
			<point x="674" y="203" type="line"/>
			<point x="744" y="530" type="line"/>
			<point x="661" y="530" type="line"/>
			<point x="603" y="443" type="line"/>
			<point x="219" y="443" type="line"/>
			<point x="198" y="530" type="line"/>
			<point x="115" y="530" type="line"/>
		</contour>
	</outline>
	<anchor name="bottom" x="360" y="203"/>
	<anchor name="top" x="430" y="530"/>
	<anchor name="topright" x="744" y="530"/>
</glyph>
<glyph name="Mturnedsmall" format="2">
	<unicode hex="A7FA"/>
	<advance width="803"/>
	<outline>
		<contour>
			<point x="26" y="0" type="line"/>
			<point x="662" y="0" type="line"/>
			<point x="778" y="546" type="line"/>
			<point x="661" y="546" type="line"/>
			<point x="565" y="96" type="line"/>
			<point x="423" y="96" type="line"/>
			<point x="518" y="546" type="line"/>
			<point x="401" y="546" type="line"/>
			<point x="305" y="96" type="line"/>
			<point x="163" y="96" type="line"/>
			<point x="258" y="546" type="line"/>
			<point x="141" y="546" type="line"/>
		</contour>
	</outline>
	<anchor name="bottom" x="343.972" y="0"/>
	<anchor name="top" x="460.028" y="546"/>
	<anchor name="topright" x="778" y="546"/>
</glyph>
<glyph name="Fepigraphicreversed" format="2">
	<unicode hex="A7FB"/>
	<advance width="530"/>
	<outline>
		<contour>
			<point x="240" y="0" type="line"/>
			<point x="388" y="0" type="line"/>
			<point x="540" y="714" type="line"/>
			<point x="145" y="714" type="line"/>
			<point x="118" y="589" type="line"/>
			<point x="365" y="589" type="line"/>
			<point x="327" y="407" type="line"/>
			<point x="96" y="407" type="line"/>
			<point x="69" y="281" type="line"/>
			<point x="300" y="281" type="line"/>
		</contour>
	</outline>
	<anchor name="bottom" x="206.972" y="0"/>
	<anchor name="top" x="359" y="714"/>
	<anchor name="topright" x="540" y="714"/>
</glyph>
<glyph name="Pepigraphicreversed" format="2">
	<unicode hex="A7FC"/>
	<advance width="609"/>
	<outline>
		<contour>
			<point x="319" y="0" type="line"/>
			<point x="467" y="0" type="line"/>
			<point x="619" y="714" type="line"/>
			<point x="398" y="714" type="line" smooth="yes"/>
			<point x="204" y="714"/>
			<point x="83" y="623"/>
			<point x="83" y="448" type="curve" smooth="yes"/>
			<point x="83" y="343"/>
			<point x="151" y="253"/>
			<point x="310" y="253" type="curve" smooth="yes"/>
			<point x="373" y="253" type="line"/>
		</contour>
		<contour>
			<point x="321" y="379" type="line"/>
			<point x="266" y="379"/>
			<point x="234" y="407"/>
			<point x="234" y="469" type="curve" smooth="yes"/>
			<point x="234" y="539"/>
			<point x="292" y="588"/>
			<point x="375" y="588" type="curve"/>
			<point x="444" y="588" type="line"/>
			<point x="400" y="379" type="line"/>
		</contour>
	</outline>
	<anchor name="bottom" x="246.972" y="0"/>
	<anchor name="top" x="399" y="714"/>
	<anchor name="topright" x="619" y="714"/>
</glyph>
<glyph name="ostrokeopenoturned" format="2">
	<unicode hex="AB44"/>
	<advance width="928"/>
	<outline>
		<contour>
			<point x="481" y="-37" type="line"/>
			<point x="850" y="537" type="line"/>
			<point x="786" y="583" type="line"/>
			<point x="413" y="6" type="line"/>
		</contour>
		<component base="oopenoturned"/>
	</outline>
	<anchor name="bottom" x="594" y="0"/>
	<anchor name="center" x="694" y="273"/>
	<anchor name="top" x="686" y="546"/>
	<anchor name="topright" x="966" y="546"/>
</glyph>
<glyph name="ubarshortrightleg" format="2">
	<unicode hex="AB4F"/>
	<advance width="604"/>
	<outline>
		<contour>
			<point x="-2" y="225" type="line"/>
			<point x="580" y="225" type="line"/>
			<point x="601" y="325" type="line"/>
			<point x="19" y="325" type="line"/>
		</contour>
		<component base="ushortrightleg"/>
	</outline>
</glyph>
<glyph name="caroncomb.sc" format="2">
	<advance width="471"/>
	<outline>
		<contour>
			<point x="235" y="643" type="curve"/>
			<point x="400" y="643" type="line"/>
			<point x="435" y="687"/>
			<point x="504" y="754"/>
			<point x="544" y="791" type="curve"/>
			<point x="544" y="803" type="line"/>
			<point x="438" y="803" type="line"/>
			<point x="399" y="778"/>
			<point x="364" y="753"/>
			<point x="325" y="721" type="curve"/>
			<point x="302" y="749"/>
			<point x="269" y="783"/>
			<point x="246" y="803" type="curve"/>
			<point x="149" y="803" type="line"/>
			<point x="149" y="791" type="line"/>
			<point x="176" y="752"/>
			<point x="215" y="690"/>
		</contour>
	</outline>
	<anchor name="_top" x="307" y="582"/>
	<anchor name="top" x="349" y="803"/>
</glyph>
<glyph name="dotaccentcomb.sc" format="2">
	<advance width="271"/>
	<outline>
		<contour>
			<point x="224" y="651" type="curve" smooth="yes"/>
			<point x="284" y="651"/>
			<point x="312" y="686"/>
			<point x="312" y="738" type="curve" smooth="yes"/>
			<point x="312" y="782"/>
			<point x="278" y="797"/>
			<point x="239" y="797" type="curve" smooth="yes"/>
			<point x="183" y="797"/>
			<point x="150" y="767"/>
			<point x="150" y="711" type="curve" smooth="yes"/>
			<point x="150" y="667"/>
			<point x="182" y="651"/>
		</contour>
	</outline>
	<anchor name="_top" x="209" y="582"/>
	<anchor name="top" x="233" y="797"/>
</glyph>
<glyph name="gravecomb.sc" format="2">
	<advance width="554"/>
	<outline>
		<contour>
			<point x="366" y="643" type="curve"/>
			<point x="456" y="643" type="line"/>
			<point x="456" y="655" type="line"/>
			<point x="431" y="704"/>
			<point x="411" y="758"/>
			<point x="400" y="803" type="curve"/>
			<point x="248" y="803" type="line"/>
			<point x="248" y="793" type="line"/>
			<point x="271" y="747"/>
			<point x="325" y="683"/>
		</contour>
	</outline>
	<anchor name="_top" x="372" y="582"/>
	<anchor name="top" x="354" y="803"/>
</glyph>
<glyph name="hungarumlautcomb.sc" format="2">
	<advance width="470"/>
	<outline>
		<contour>
			<point x="336" y="655" type="curve"/>
			<point x="336" y="643" type="line"/>
			<point x="423" y="643" type="line"/>
			<point x="474" y="679"/>
			<point x="569" y="759"/>
			<point x="598" y="795" type="curve"/>
			<point x="598" y="803" type="line"/>
			<point x="449" y="803" type="line"/>
			<point x="418" y="756"/>
			<point x="369" y="692"/>
		</contour>
		<contour>
			<point x="142" y="655" type="curve"/>
			<point x="142" y="643" type="line"/>
			<point x="229" y="643" type="line"/>
			<point x="280" y="679"/>
			<point x="375" y="759"/>
			<point x="404" y="795" type="curve"/>
			<point x="404" y="803" type="line"/>
			<point x="255" y="803" type="line"/>
			<point x="224" y="756"/>
			<point x="175" y="692"/>
		</contour>
	</outline>
	<anchor name="_top" x="267" y="582"/>
	<anchor name="top" x="372" y="803"/>
</glyph>
<glyph name="i.sc" format="2">
	<advance width="348"/>
	<outline>
		<contour>
			<point x="-32" y="0" type="line"/>
			<point x="261" y="0" type="line"/>
			<point x="278" y="85" type="line"/>
			<point x="211" y="115" type="line"/>
			<point x="288" y="464" type="line"/>
			<point x="369" y="496" type="line"/>
			<point x="386" y="582" type="line"/>
			<point x="90" y="582" type="line"/>
			<point x="73" y="496" type="line"/>
			<point x="140" y="464" type="line"/>
			<point x="63" y="115" type="line"/>
			<point x="-15" y="85" type="line"/>
		</contour>
	</outline>
	<anchor name="bottom" x="112" y="0"/>
	<anchor name="top" x="236" y="582"/>
	<anchor name="topright" x="390" y="582"/>
</glyph>
<glyph name="i_sc.salt" format="2">
	<advance width="304"/>
	<outline>
		<contour>
			<point x="17" y="0" type="line"/>
			<point x="165" y="0" type="line"/>
			<point x="293" y="581" type="line"/>
			<point x="145" y="581" type="line"/>
		</contour>
	</outline>
	<anchor name="bottom" x="91" y="0"/>
	<anchor name="top" x="215" y="582"/>
	<anchor name="topright" x="350" y="582"/>
</glyph>
<glyph name="imoddotless" format="2">
	<advance width="243"/>
	<outline>
		<contour>
			<point x="72" y="287" type="line"/>
			<point x="167" y="287" type="line"/>
			<point x="243" y="615" type="line"/>
			<point x="147" y="615" type="line"/>
		</contour>
	</outline>
	<anchor name="bottom" x="119" y="287"/>
	<anchor name="top" x="196" y="615"/>
	<anchor name="topright" x="280" y="615"/>
</glyph>
<glyph name="istrokedotless" format="2">
	<advance width="297"/>
	<outline>
		<contour>
			<point x="-8" y="230" type="line"/>
			<point x="289" y="230" type="line"/>
			<point x="310" y="327" type="line"/>
			<point x="13" y="327" type="line"/>
		</contour>
		<component base="idotless"/>
	</outline>
	<anchor name="bottom" x="91" y="0"/>
	<anchor name="top" x="207" y="546"/>
</glyph>
<glyph name="istrokemoddotless" format="2">
	<advance width="193"/>
	<outline>
		<contour>
			<point x="65" y="287" type="line"/>
			<point x="160" y="287" type="line"/>
			<point x="192" y="425" type="line"/>
			<point x="241" y="425" type="line"/>
			<point x="254" y="483" type="line"/>
			<point x="205" y="483" type="line"/>
			<point x="236" y="615" type="line"/>
			<point x="140" y="615" type="line"/>
			<point x="110" y="483" type="line"/>
			<point x="61" y="483" type="line"/>
			<point x="48" y="425" type="line"/>
			<point x="97" y="425" type="line"/>
		</contour>
	</outline>
	<anchor name="bottom" x="112" y="287"/>
	<anchor name="top" x="189" y="615"/>
</glyph>
<glyph name="k.sc" format="2">
	<advance width="557"/>
	<outline>
		<contour>
			<point x="17" y="0" type="line"/>
			<point x="166" y="0" type="line"/>
			<point x="210" y="211" type="line"/>
			<point x="254" y="235" type="line"/>
			<point x="336" y="0" type="line"/>
			<point x="502" y="0" type="line"/>
			<point x="382" y="316" type="line"/>
			<point x="614" y="582" type="line"/>
			<point x="440" y="582" type="line"/>
			<point x="300" y="428" type="line"/>
			<point x="275" y="397"/>
			<point x="252" y="359"/>
			<point x="234" y="332" type="curve"/>
			<point x="289" y="582" type="line"/>
			<point x="140" y="582" type="line"/>
		</contour>
	</outline>
	<anchor name="bottom" x="240" y="0"/>
	<anchor name="top" x="341" y="582"/>
	<anchor name="topright" x="599" y="582"/>
</glyph>
<glyph name="l.sc" format="2">
	<advance width="444"/>
	<outline>
		<contour>
			<point x="17" y="0" type="line"/>
			<point x="369" y="0" type="line"/>
			<point x="394" y="122" type="line"/>
			<point x="190" y="122" type="line"/>
			<point x="289" y="582" type="line"/>
			<point x="140" y="582" type="line"/>
		</contour>
	</outline>
	<anchor name="bottom" x="193" y="0"/>
	<anchor name="center" x="284" y="291"/>
	<anchor name="top" x="222" y="582"/>
	<anchor name="topright" x="446" y="582"/>
</glyph>
<glyph name="lslash.sc" format="2">
	<advance width="444"/>
	<outline>
		<contour>
			<point x="26" y="172" type="line"/>
			<point x="400" y="345" type="line"/>
			<point x="358" y="443" type="line"/>
			<point x="-13" y="270" type="line"/>
		</contour>
		<component base="l.sc" xOffset="10"/>
	</outline>
	<anchor name="bottom" x="164" y="0"/>
	<anchor name="top" x="288" y="582"/>
	<anchor name="center" x="294" y="291"/>
	<anchor name="topright" x="456" y="582"/>
</glyph>
<glyph name="macroncomb.sc" format="2">
	<advance width="454"/>
	<outline>
		<contour>
			<point x="154" y="643" type="line"/>
			<point x="456" y="643" type="line"/>
			<point x="478" y="746" type="line"/>
			<point x="176" y="746" type="line"/>
		</contour>
	</outline>
	<anchor name="_top" x="295" y="582"/>
	<anchor name="top" x="318" y="746"/>
</glyph>
<glyph name="t.sc" format="2">
	<advance width="462"/>
	<outline>
		<contour>
			<point x="103" y="0" type="line"/>
			<point x="251" y="0" type="line"/>
			<point x="348" y="458" type="line"/>
			<point x="486" y="458" type="line"/>
			<point x="512" y="582" type="line"/>
			<point x="88" y="582" type="line"/>
			<point x="63" y="458" type="line"/>
			<point x="200" y="458" type="line"/>
		</contour>
	</outline>
	<anchor name="bottom" x="179" y="0"/>
	<anchor name="center" x="293" y="291"/>
	<anchor name="top" x="297" y="582"/>
	<anchor name="topright" x="504" y="582"/>
</glyph>
<glyph name="tbar.sc" format="2">
	<advance width="462"/>
	<outline>
		<contour>
			<point x="48" y="195" type="line"/>
			<point x="397" y="195" type="line"/>
			<point x="422" y="312" type="line"/>
			<point x="72" y="312" type="line"/>
		</contour>
		<component base="t.sc"/>
	</outline>
	<anchor name="bottom" x="179" y="0"/>
	<anchor name="top" x="297" y="582"/>
	<anchor name="center" x="293" y="291"/>
	<anchor name="topright" x="504" y="582"/>
</glyph>
<glyph name="y.sc" format="2">
	<advance width="501"/>
	<outline>
		<contour>
			<point x="118" y="0" type="line"/>
			<point x="267" y="0" type="line"/>
			<point x="315" y="226" type="line"/>
			<point x="567" y="582" type="line"/>
			<point x="401" y="582" type="line"/>
			<point x="263" y="360" type="line"/>
			<point x="218" y="582" type="line"/>
			<point x="65" y="582" type="line"/>
			<point x="167" y="226" type="line"/>
		</contour>
	</outline>
	<anchor name="bottom" x="189" y="0"/>
	<anchor name="top" x="302" y="582"/>
	<anchor name="topright" x="543" y="582"/>
</glyph>
